<svg xmlns="http://www.w3.org/2000/svg" width="100%" height="100%" viewBox="0 0 582 832" preserveAspectRatio="xMidYMid slice" style="display: block" aria-hidden="true"><defs><radialGradient id="pcore" cx=".5" cy=".5" r=".5"><stop offset="0" stop-color="#ffffff"/><stop offset=".18" stop-color="#fff7e6"/><stop offset=".4" stop-color="#ffd9a8" stop-opacity=".55"/><stop offset="1" stop-color="#ffb36b" stop-opacity="0"/></radialGradient><radialGradient id="phalo" cx=".5" cy=".5" r=".5"><stop offset=".3" stop-color="#ffc98a" stop-opacity="0"/><stop offset=".62" stop-color="#ffc98a" stop-opacity=".18"/><stop offset=".7" stop-color="#ffd9a8" stop-opacity=".3"/><stop offset=".78" stop-color="#ffc98a" stop-opacity=".1"/><stop offset="1" stop-color="#ffc98a" stop-opacity="0"/></radialGradient><linearGradient id="psp" x1="0" x2="1"><stop offset="0" stop-color="#fff" stop-opacity="0"/><stop offset=".5" stop-color="#fff5e0"/><stop offset="1" stop-color="#fff" stop-opacity="0"/></linearGradient><linearGradient id="pbloom" x1="0" y1="0" x2="0" y2="1"><stop offset="0" stop-color="#ffe6c0" stop-opacity="0"/><stop offset=".5" stop-color="#ffe6c0" stop-opacity=".5"/><stop offset="1" stop-color="#ffe6c0" stop-opacity="0"/></linearGradient><filter id="pb2" x="-20%" y="-20%" width="140%" height="140%"><feGaussianBlur stdDeviation="2"/></filter><filter id="pb9" x="-40%" y="-40%" width="180%" height="180%"><feGaussianBlur stdDeviation="9"/></filter><filter id="pb1"><feGaussianBlur stdDeviation=".8"/></filter><radialGradient id="pvig" cx=".5" cy=".42" r=".7"><stop offset=".5" stop-color="#000" stop-opacity="0"/><stop offset="1" stop-color="#000" stop-opacity=".62"/></radialGradient></defs><rect x="288" y="58" width="7" height="520" fill="url(#pbloom)" filter="url(#pb2)" opacity=".55"/><circle cx="291" cy="318" r="150" fill="url(#phalo)"/><circle cx="291" cy="318" r="60" fill="none" stroke="#ffd9a8" stroke-opacity=".28" stroke-width="7" filter="url(#pb9)"/><rect x="41" y="317.2" width="500" height="1.6" fill="url(#psp)" opacity="0.9" transform="rotate(0 291 318)"/><rect x="111" y="316.4" width="360" height="3.2" fill="url(#psp)" opacity="0.3" transform="rotate(0 291 318)"/><rect x="-39" y="317.6" width="660" height="0.7" fill="url(#psp)" opacity="0.5" transform="rotate(0 291 318)"/><rect x="41" y="317.2" width="500" height="1.6" fill="url(#psp)" opacity="0.9" transform="rotate(90 291 318)"/><rect x="111" y="316.4" width="360" height="3.2" fill="url(#psp)" opacity="0.3" transform="rotate(90 291 318)"/><rect x="-39" y="317.6" width="660" height="0.7" fill="url(#psp)" opacity="0.5" transform="rotate(90 291 318)"/><circle cx="291" cy="318" r="46" fill="url(#pcore)"/><circle cx="291" cy="318" r="9" fill="#fff"/><g opacity="0.8"><circle cx="451.9" cy="472.4" r="9" fill="#e8f0ff" opacity=".18"/><circle cx="451.9" cy="472.4" r="4" fill="#e8f0ff" opacity=".35"/><circle cx="451.9" cy="472.4" r="2" fill="#fff"/><path d="M433.8 472.4H470M451.9 454.3V490.5" stroke="#e8f0ff" stroke-width="0.6" stroke-linecap="round" opacity=".7"/></g><g opacity="0.6"><circle cx="137.9" cy="231.2" r="5.5" fill="#e8f0ff" opacity=".18"/><circle cx="137.9" cy="231.2" r="2.4" fill="#e8f0ff" opacity=".35"/><circle cx="137.9" cy="231.2" r="1.2" fill="#fff"/><path d="M126.9 231.2H148.8M137.9 220.2V242.1" stroke="#e8f0ff" stroke-width="0.6" stroke-linecap="round" opacity=".7"/></g><g opacity="0.6"><circle cx="485.1" cy="431.1" r="7.9" fill="#e8f0ff" opacity=".18"/><circle cx="485.1" cy="431.1" r="3.5" fill="#e8f0ff" opacity=".35"/><circle cx="485.1" cy="431.1" r="1.8" fill="#fff"/><path d="M469.2 431.1H501M485.1 415.2V447" stroke="#e8f0ff" stroke-width="0.6" stroke-linecap="round" opacity=".7"/></g><g opacity="0.8"><circle cx="451.5" cy="309.7" r="11.1" fill="#e8f0ff" opacity=".18"/><circle cx="451.5" cy="309.7" r="4.9" fill="#e8f0ff" opacity=".35"/><circle cx="451.5" cy="309.7" r="2.5" fill="#fff"/><path d="M429.3 309.7H473.8M451.5 287.5V332" stroke="#e8f0ff" stroke-width="0.6" stroke-linecap="round" opacity=".7"/></g><g opacity="0.8"><circle cx="341.3" cy="543.7" r="7.8" fill="#e8f0ff" opacity=".18"/><circle cx="341.3" cy="543.7" r="3.5" fill="#e8f0ff" opacity=".35"/><circle cx="341.3" cy="543.7" r="1.7" fill="#fff"/><path d="M325.7 543.7H357M341.3 528.1V559.3" stroke="#e8f0ff" stroke-width="0.6" stroke-linecap="round" opacity=".7"/></g><g opacity="0.6"><circle cx="501" cy="673.7" r="8.6" fill="#e8f0ff" opacity=".18"/><circle cx="501" cy="673.7" r="3.8" fill="#e8f0ff" opacity=".35"/><circle cx="501" cy="673.7" r="1.9" fill="#fff"/><path d="M483.8 673.7H518.3M501 656.5V691" stroke="#e8f0ff" stroke-width="0.6" stroke-linecap="round" opacity=".7"/></g><g opacity="0.7"><circle cx="419.2" cy="217.8" r="11.4" fill="#e8f0ff" opacity=".18"/><circle cx="419.2" cy="217.8" r="5.1" fill="#e8f0ff" opacity=".35"/><circle cx="419.2" cy="217.8" r="2.5" fill="#fff"/><path d="M396.4 217.8H441.9M419.2 195V240.6" stroke="#e8f0ff" stroke-width="0.6" stroke-linecap="round" opacity=".7"/></g><g opacity="0.7"><circle cx="228.5" cy="434.8" r="11.3" fill="#e8f0ff" opacity=".18"/><circle cx="228.5" cy="434.8" r="5" fill="#e8f0ff" opacity=".35"/><circle cx="228.5" cy="434.8" r="2.5" fill="#fff"/><path d="M205.9 434.8H251.2M228.5 412.2V457.5" stroke="#e8f0ff" stroke-width="0.6" stroke-linecap="round" opacity=".7"/></g><g opacity="0.7"><circle cx="435.8" cy="347.8" r="5.4" fill="#e8f0ff" opacity=".18"/><circle cx="435.8" cy="347.8" r="2.4" fill="#e8f0ff" opacity=".35"/><circle cx="435.8" cy="347.8" r="1.2" fill="#fff"/><path d="M424.9 347.8H446.6M435.8 337V358.6" stroke="#e8f0ff" stroke-width="0.6" stroke-linecap="round" opacity=".7"/></g><ellipse cx="128" cy="612" rx="26" ry="9" fill="#c6d2ff" opacity=".16" transform="rotate(-28 128 612)" filter="url(#pb2)"/><rect width="582" height="832" fill="url(#pvig)"/><filter id="pogr" x="0" y="0" width="100%" height="100%"><feTurbulence type="fractalNoise" baseFrequency=".85" numOctaves="2" stitchTiles="stitch"/><feColorMatrix type="saturate" values="0"/></filter><rect width="582" height="832" filter="url(#pogr)" opacity="0.2" style="mix-blend-mode: overlay"/></svg>