<svg xmlns="http://www.w3.org/2000/svg" width="100%" height="100%" viewBox="0 0 582 620" preserveAspectRatio="xMidYMid slice" style="display: block" aria-hidden="true"><defs><linearGradient id="pspH" x1="0" x2="1"><stop offset="0" stop-color="#fff" stop-opacity="0"/><stop offset=".5" stop-color="#fff"/><stop offset="1" stop-color="#fff" stop-opacity="0"/></linearGradient><linearGradient id="pspV" x1="0" x2="0" y1="0" y2="1"><stop offset="0" stop-color="#fff" stop-opacity="0"/><stop offset=".5" stop-color="#fff"/><stop offset="1" stop-color="#fff" stop-opacity="0"/></linearGradient><radialGradient id="phz" cx=".5" cy=".48" r=".75"><stop offset="0" stop-color="#15203c"/><stop offset=".55" stop-color="#0a1024"/><stop offset="1" stop-color="#03050e"/></radialGradient></defs><rect width="582" height="620" fill="url(#phz)"/><circle cx="265.6" cy="445.7" r="1.4" fill="#dfe8ff" opacity="0.8"/><circle cx="430.2" cy="405.7" r="1.2" fill="#cfe0ff" opacity="0.9"/><circle cx="69.1" cy="51" r="1.1" fill="#dfe8ff" opacity="0.8"/><circle cx="25.6" cy="596.3" r="1.4" fill="#dfe8ff" opacity="0.8"/><circle cx="434.1" cy="533.8" r="0.3" fill="#cfe0ff" opacity="0.5"/><circle cx="448.9" cy="382.9" r="0.6" fill="#ffffff" opacity="0.6"/><circle cx="550.5" cy="383.4" r="0.5" fill="#cfe0ff" opacity="0.9"/><circle cx="527.7" cy="469.8" r="0.7" fill="#cfe0ff" opacity="0.7"/><circle cx="172.6" cy="298.6" r="0.7" fill="#dfe8ff" opacity="0.5"/><circle cx="535.2" cy="298.4" r="0.4" fill="#fff1dc" opacity="0.4"/><circle cx="407.2" cy="55.8" r="0.9" fill="#cfe0ff" opacity="0.8"/><circle cx="531.4" cy="475" r="0.3" fill="#ffffff" opacity="0.8"/><circle cx="320.1" cy="370.1" r="0.3" fill="#cfe0ff" opacity="0.6"/><circle cx="152.4" cy="551.2" r="0.7" fill="#dfe8ff" opacity="0.7"/><circle cx="376.5" cy="541" r="0.3" fill="#dfe8ff" opacity="0.7"/><circle cx="133.3" cy="239.5" r="0.6" fill="#ffffff" opacity="0.8"/><circle cx="277.8" cy="205.1" r="0.4" fill="#dfe8ff" opacity="0.8"/><circle cx="398.7" cy="526.4" r="0.3" fill="#ffffff" opacity="0.9"/><circle cx="535.2" cy="112.8" r="0.3" fill="#fff1dc" opacity="0.7"/><circle cx="407" cy="395.7" r="0.5" fill="#cfe0ff" opacity="0.6"/><circle cx="367.3" cy="41.4" r="0.3" fill="#ffffff" opacity="0.8"/><circle cx="427.2" cy="254.4" r="0.4" fill="#fff1dc" opacity="0.8"/><circle cx="347.5" cy="569" r="0.9" fill="#fff1dc" opacity="0.7"/><circle cx="19.7" cy="501.4" r="0.3" fill="#cfe0ff" opacity="0.6"/><circle cx="244.6" cy="84.4" r="0.9" fill="#cfe0ff" opacity="0.9"/><circle cx="318.1" cy="540.5" r="0.7" fill="#ffffff" opacity="0.4"/><circle cx="483.6" cy="93.9" r="1.2" fill="#cfe0ff" opacity="0.8"/><circle cx="68.3" cy="419.9" r="0.4" fill="#ffffff" opacity="0.8"/><circle cx="84.4" cy="217.5" r="0.3" fill="#ffffff" opacity="0.8"/><circle cx="147.5" cy="152.6" r="0.9" fill="#cfe0ff" opacity="0.9"/><circle cx="171" cy="235.5" r="0.3" fill="#cfe0ff" opacity="0.6"/><circle cx="540.4" cy="358.3" r="0.4" fill="#cfe0ff" opacity="0.8"/><circle cx="549.2" cy="66.4" r="1.4" fill="#fff1dc" opacity="0.8"/><circle cx="299.2" cy="52.6" r="1.5" fill="#cfe0ff" opacity="0.7"/><circle cx="30.4" cy="173" r="0.8" fill="#ffffff" opacity="0.5"/><circle cx="449.3" cy="62.9" r="0.3" fill="#dfe8ff" opacity="0.6"/><circle cx="218.3" cy="122.8" r="0.3" fill="#ffffff" opacity="0.4"/><circle cx="444.4" cy="512.6" r="1.4" fill="#fff1dc" opacity="0.5"/><circle cx="512" cy="443.7" r="1.1" fill="#fff1dc" opacity="0.4"/><circle cx="63.9" cy="415.4" r="0.4" fill="#fff1dc" opacity="0.5"/><circle cx="194.9" cy="461.3" r="0.7" fill="#fff1dc" opacity="0.9"/><circle cx="373.1" cy="19.9" r="0.7" fill="#dfe8ff" opacity="0.7"/><circle cx="8.6" cy="166.3" r="0.3" fill="#fff1dc" opacity="0.9"/><circle cx="155.6" cy="68.3" r="0.4" fill="#fff1dc" opacity="0.8"/><circle cx="570.4" cy="417.5" r="0.5" fill="#cfe0ff" opacity="0.9"/><circle cx="165.2" cy="206.4" r="0.3" fill="#ffffff" opacity="0.9"/><circle cx="476.3" cy="167.1" r="0.7" fill="#dfe8ff" opacity="0.5"/><circle cx="556.5" cy="132.3" r="0.3" fill="#fff1dc" opacity="0.8"/><circle cx="580.6" cy="454.8" r="0.8" fill="#cfe0ff" opacity="0.6"/><circle cx="98.5" cy="270.3" r="0.3" fill="#fff1dc" opacity="0.7"/><circle cx="459.7" cy="404.4" r="0.4" fill="#fff1dc" opacity="0.8"/><circle cx="433" cy="608.6" r="0.3" fill="#dfe8ff" opacity="0.8"/><circle cx="68.7" cy="277.8" r="0.3" fill="#cfe0ff" opacity="0.8"/><circle cx="127.2" cy="436.7" r="0.3" fill="#ffffff" opacity="0.6"/><circle cx="83.2" cy="209.8" r="0.3" fill="#fff1dc" opacity="0.9"/><circle cx="538.7" cy="566.1" r="1" fill="#cfe0ff" opacity="0.3"/><circle cx="581.4" cy="431.4" r="0.3" fill="#cfe0ff" opacity="0.5"/><circle cx="57.1" cy="325.4" r="0.3" fill="#fff1dc" opacity="0.8"/><circle cx="361.5" cy="530.6" r="0.5" fill="#ffffff" opacity="0.9"/><circle cx="332.7" cy="39.1" r="0.6" fill="#cfe0ff" opacity="0.8"/><circle cx="284.1" cy="113.2" r="0.3" fill="#cfe0ff" opacity="0.6"/><circle cx="2.8" cy="90.8" r="0.7" fill="#ffffff" opacity="0.9"/><circle cx="115.5" cy="595.9" r="0.3" fill="#ffffff" opacity="0.4"/><circle cx="329.4" cy="185.6" r="1.5" fill="#fff1dc" opacity="0.4"/><circle cx="345.2" cy="484.4" r="0.7" fill="#fff1dc" opacity="0.3"/><circle cx="301.6" cy="165.9" r="0.3" fill="#cfe0ff" opacity="0.8"/><circle cx="530.4" cy="311.5" r="0.3" fill="#dfe8ff" opacity="0.4"/><circle cx="235.6" cy="82" r="0.8" fill="#fff1dc" opacity="0.9"/><circle cx="405.3" cy="392.4" r="0.3" fill="#fff1dc" opacity="0.9"/><circle cx="490.9" cy="287.5" r="0.7" fill="#cfe0ff" opacity="0.9"/><circle cx="400.1" cy="422.1" r="0.8" fill="#cfe0ff" opacity="0.5"/><circle cx="282.7" cy="369.4" r="0.5" fill="#ffffff" opacity="0.8"/><circle cx="524.1" cy="600.4" r="1.2" fill="#fff1dc" opacity="0.3"/><circle cx="371.9" cy="482.7" r="0.4" fill="#dfe8ff" opacity="0.8"/><circle cx="402.7" cy="563.7" r="0.3" fill="#fff1dc" opacity="0.4"/><circle cx="203.5" cy="327.5" r="0.5" fill="#ffffff" opacity="0.6"/><circle cx="535.6" cy="505" r="1.3" fill="#fff1dc" opacity="0.9"/><circle cx="103.1" cy="29.5" r="1.3" fill="#cfe0ff" opacity="0.7"/><circle cx="398.3" cy="516" r="0.8" fill="#ffffff" opacity="0.6"/><circle cx="567.4" cy="38.9" r="0.3" fill="#ffffff" opacity="0.4"/><circle cx="56.9" cy="30.1" r="0.4" fill="#cfe0ff" opacity="0.5"/><circle cx="147.3" cy="75" r="1.3" fill="#fff1dc" opacity="0.8"/><circle cx="558" cy="80.3" r="0.5" fill="#ffffff" opacity="0.5"/><circle cx="550.3" cy="278.8" r="1.4" fill="#dfe8ff" opacity="0.7"/><circle cx="319.8" cy="533.3" r="0.7" fill="#ffffff" opacity="0.6"/><circle cx="254.5" cy="530.2" r="0.4" fill="#fff1dc" opacity="0.8"/><circle cx="488.2" cy="599.1" r="0.3" fill="#cfe0ff" opacity="0.9"/><circle cx="429.2" cy="259.5" r="0.8" fill="#cfe0ff" opacity="0.9"/><circle cx="232.9" cy="505.1" r="0.6" fill="#dfe8ff" opacity="0.5"/><circle cx="216.3" cy="494.7" r="0.3" fill="#cfe0ff" opacity="0.6"/><circle cx="124.1" cy="334.8" r="1.1" fill="#fff1dc" opacity="0.7"/><circle cx="339.1" cy="331.3" r="0.3" fill="#cfe0ff" opacity="0.6"/><circle cx="495.3" cy="319.5" r="0.3" fill="#dfe8ff" opacity="0.9"/><circle cx="369.6" cy="137.5" r="0.4" fill="#ffffff" opacity="0.6"/><circle cx="216.7" cy="155" r="1" fill="#cfe0ff" opacity="0.6"/><circle cx="524.6" cy="19.8" r="1.3" fill="#fff1dc" opacity="0.9"/><circle cx="384.2" cy="346" r="0.3" fill="#dfe8ff" opacity="0.5"/><circle cx="100.5" cy="498.8" r="0.4" fill="#dfe8ff" opacity="0.9"/><circle cx="167.4" cy="291.1" r="0.4" fill="#cfe0ff" opacity="0.5"/><circle cx="422.1" cy="89.7" r="0.6" fill="#dfe8ff" opacity="0.4"/><circle cx="246.9" cy="490.5" r="0.3" fill="#dfe8ff" opacity="0.7"/><circle cx="334.1" cy="190.8" r="0.3" fill="#cfe0ff" opacity="0.8"/><circle cx="358.1" cy="407" r="0.3" fill="#ffffff" opacity="0.8"/><circle cx="307.5" cy="527.7" r="0.5" fill="#fff1dc" opacity="0.7"/><circle cx="143.6" cy="66.2" r="1.1" fill="#fff1dc" opacity="0.6"/><circle cx="27.6" cy="373.2" r="0.3" fill="#fff1dc" opacity="0.4"/><circle cx="383.8" cy="227.8" r="0.3" fill="#ffffff" opacity="0.6"/><circle cx="509.6" cy="448.5" r="0.4" fill="#cfe0ff" opacity="0.8"/><circle cx="517.4" cy="27.3" r="0.3" fill="#dfe8ff" opacity="0.9"/><circle cx="422.6" cy="356.5" r="0.5" fill="#fff1dc" opacity="0.9"/><circle cx="425.6" cy="423.2" r="0.9" fill="#fff1dc" opacity="0.7"/><circle cx="91.5" cy="238" r="0.4" fill="#dfe8ff" opacity="0.7"/><circle cx="17.2" cy="417.9" r="0.3" fill="#fff1dc" opacity="0.4"/><circle cx="260.5" cy="48.3" r="0.3" fill="#dfe8ff" opacity="0.6"/><circle cx="198" cy="240.8" r="0.6" fill="#cfe0ff" opacity="0.5"/><circle cx="15" cy="462.3" r="0.3" fill="#fff1dc" opacity="0.8"/><circle cx="136.3" cy="107" r="0.3" fill="#ffffff" opacity="0.8"/><circle cx="114" cy="437.6" r="1.2" fill="#dfe8ff" opacity="0.8"/><circle cx="412.7" cy="546" r="0.7" fill="#ffffff" opacity="0.7"/><circle cx="127.9" cy="471" r="0.3" fill="#ffffff" opacity="0.7"/><circle cx="9.3" cy="47.3" r="0.4" fill="#ffffff" opacity="0.8"/><circle cx="156.5" cy="135.4" r="0.9" fill="#ffffff" opacity="0.6"/><circle cx="395.9" cy="486.4" r="0.3" fill="#fff1dc" opacity="0.9"/><circle cx="549.8" cy="176" r="0.3" fill="#dfe8ff" opacity="0.6"/><circle cx="187.2" cy="577.8" r="0.3" fill="#ffffff" opacity="0.7"/><circle cx="442.3" cy="1.5" r="0.3" fill="#dfe8ff" opacity="0.5"/><circle cx="69.9" cy="262.4" r="1.3" fill="#cfe0ff" opacity="0.4"/><circle cx="0.7" cy="516.4" r="0.3" fill="#dfe8ff" opacity="0.8"/><circle cx="329.7" cy="516.9" r="0.7" fill="#fff1dc" opacity="0.5"/><circle cx="486.4" cy="334.3" r="0.4" fill="#fff1dc" opacity="0.8"/><circle cx="233.8" cy="561.2" r="0.3" fill="#fff1dc" opacity="0.9"/><circle cx="240.1" cy="330.9" r="0.8" fill="#fff1dc" opacity="0.9"/><circle cx="237" cy="310.2" r="0.5" fill="#fff1dc" opacity="0.8"/><circle cx="493" cy="75.1" r="1.2" fill="#cfe0ff" opacity="0.7"/><circle cx="470.4" cy="337.3" r="0.3" fill="#cfe0ff" opacity="0.9"/><circle cx="69.4" cy="383.7" r="1.3" fill="#dfe8ff" opacity="0.9"/><circle cx="200.4" cy="426" r="0.3" fill="#ffffff" opacity="0.9"/><circle cx="429.6" cy="576.4" r="0.3" fill="#ffffff" opacity="0.6"/><circle cx="64.4" cy="549.8" r="1" fill="#dfe8ff" opacity="0.8"/><circle cx="150.7" cy="141.3" r="0.8" fill="#ffffff" opacity="0.5"/><circle cx="545.1" cy="149.5" r="0.9" fill="#dfe8ff" opacity="0.7"/><circle cx="79.6" cy="330" r="1.5" fill="#dfe8ff" opacity="0.7"/><circle cx="421.1" cy="562.6" r="0.8" fill="#fff1dc" opacity="0.7"/><circle cx="254.8" cy="450" r="0.3" fill="#fff1dc" opacity="0.7"/><circle cx="222.5" cy="198.7" r="0.3" fill="#fff1dc" opacity="0.5"/><circle cx="184.4" cy="431.3" r="0.3" fill="#dfe8ff" opacity="0.6"/><circle cx="89.4" cy="11.7" r="0.8" fill="#fff1dc" opacity="0.7"/><circle cx="344.7" cy="245.2" r="1.2" fill="#cfe0ff" opacity="0.9"/><circle cx="532.8" cy="540.4" r="0.4" fill="#ffffff" opacity="0.9"/><circle cx="546.9" cy="285.7" r="1.1" fill="#fff1dc" opacity="0.6"/><circle cx="469.8" cy="145.8" r="0.3" fill="#fff1dc" opacity="0.4"/><circle cx="369.8" cy="248.1" r="1.4" fill="#cfe0ff" opacity="0.7"/><circle cx="578.5" cy="414.8" r="0.5" fill="#ffffff" opacity="0.5"/><circle cx="82.7" cy="363.3" r="0.3" fill="#ffffff" opacity="0.8"/><circle cx="407.9" cy="576.5" r="1" fill="#ffffff" opacity="0.9"/><circle cx="315.3" cy="311.9" r="0.8" fill="#cfe0ff" opacity="0.8"/><circle cx="90.7" cy="331.7" r="0.6" fill="#ffffff" opacity="0.8"/><circle cx="374.3" cy="2.5" r="0.3" fill="#cfe0ff" opacity="0.6"/><circle cx="313.9" cy="435.6" r="0.3" fill="#fff1dc" opacity="0.9"/><circle cx="98.7" cy="51.5" r="0.3" fill="#dfe8ff" opacity="0.5"/><circle cx="370.6" cy="92.4" r="1.2" fill="#cfe0ff" opacity="0.8"/><circle cx="480.1" cy="69.9" r="1.1" fill="#fff1dc" opacity="0.7"/><circle cx="340.2" cy="269.3" r="0.8" fill="#cfe0ff" opacity="0.8"/><circle cx="434.6" cy="62.5" r="0.4" fill="#dfe8ff" opacity="0.4"/><circle cx="175.7" cy="473.7" r="0.4" fill="#ffffff" opacity="0.6"/><circle cx="524.4" cy="109.3" r="1.2" fill="#fff1dc" opacity="0.8"/><circle cx="57.6" cy="550.4" r="0.3" fill="#fff1dc" opacity="0.6"/><circle cx="213.2" cy="422.9" r="0.9" fill="#fff1dc" opacity="0.3"/><circle cx="154.8" cy="487.1" r="0.9" fill="#ffffff" opacity="0.4"/><circle cx="339.7" cy="320.1" r="0.3" fill="#ffffff" opacity="0.7"/><circle cx="194.2" cy="126.9" r="0.3" fill="#fff1dc" opacity="0.7"/><circle cx="375.4" cy="303" r="0.4" fill="#fff1dc" opacity="0.3"/><circle cx="313" cy="513.3" r="0.4" fill="#cfe0ff" opacity="0.9"/><circle cx="277.2" cy="245.9" r="0.5" fill="#ffffff" opacity="0.9"/><circle cx="380" cy="401.3" r="0.5" fill="#ffffff" opacity="0.8"/><circle cx="505.2" cy="395.7" r="0.3" fill="#cfe0ff" opacity="0.8"/><circle cx="259.3" cy="559.3" r="0.3" fill="#fff1dc" opacity="0.6"/><circle cx="119" cy="353.5" r="0.5" fill="#fff1dc" opacity="0.5"/><circle cx="17.3" cy="182.5" r="0.9" fill="#fff1dc" opacity="0.4"/><circle cx="275.8" cy="173.7" r="0.4" fill="#dfe8ff" opacity="0.8"/><circle cx="156.1" cy="495.1" r="0.3" fill="#cfe0ff" opacity="0.7"/><circle cx="316" cy="523.6" r="0.5" fill="#fff1dc" opacity="0.5"/><circle cx="62.1" cy="311" r="0.3" fill="#ffffff" opacity="0.6"/><circle cx="77.6" cy="304.4" r="0.3" fill="#fff1dc" opacity="0.4"/><circle cx="267.5" cy="230.7" r="0.3" fill="#dfe8ff" opacity="0.7"/><circle cx="393.6" cy="168.7" r="0.4" fill="#dfe8ff" opacity="0.9"/><circle cx="113.9" cy="257" r="0.4" fill="#cfe0ff" opacity="0.9"/><circle cx="15.6" cy="219.4" r="0.3" fill="#fff1dc" opacity="0.9"/><circle cx="335.9" cy="479.9" r="0.3" fill="#ffffff" opacity="0.4"/><circle cx="64.6" cy="486.9" r="0.4" fill="#fff1dc" opacity="0.6"/><circle cx="105.1" cy="314.5" r="0.5" fill="#ffffff" opacity="0.9"/><circle cx="214.2" cy="470.7" r="1.4" fill="#fff1dc" opacity="0.7"/><circle cx="367" cy="536.7" r="0.4" fill="#dfe8ff" opacity="0.8"/><circle cx="423.9" cy="149.1" r="0.8" fill="#dfe8ff" opacity="0.7"/><circle cx="63.3" cy="589.5" r="0.3" fill="#ffffff" opacity="0.4"/><circle cx="308.9" cy="21" r="0.7" fill="#dfe8ff" opacity="0.9"/><circle cx="478.1" cy="532.9" r="0.4" fill="#fff1dc" opacity="0.9"/><circle cx="479" cy="615.5" r="0.8" fill="#cfe0ff" opacity="0.7"/><circle cx="466" cy="24.1" r="0.3" fill="#cfe0ff" opacity="0.3"/><circle cx="263.8" cy="43.4" r="0.7" fill="#cfe0ff" opacity="0.3"/><circle cx="316.3" cy="410.8" r="0.5" fill="#cfe0ff" opacity="0.6"/><circle cx="298.8" cy="365.2" r="0.6" fill="#cfe0ff" opacity="0.7"/><circle cx="513.6" cy="484.6" r="0.3" fill="#ffffff" opacity="0.8"/><circle cx="423.8" cy="165.4" r="0.3" fill="#dfe8ff" opacity="0.5"/><circle cx="350.2" cy="532.8" r="0.4" fill="#fff1dc" opacity="0.6"/><circle cx="508.7" cy="504.9" r="0.7" fill="#dfe8ff" opacity="0.7"/><circle cx="388.9" cy="199.7" r="0.7" fill="#dfe8ff" opacity="0.8"/><circle cx="382.2" cy="481.3" r="0.4" fill="#fff1dc" opacity="0.6"/><circle cx="479.4" cy="461.4" r="0.4" fill="#dfe8ff" opacity="0.5"/><circle cx="252.2" cy="199.9" r="0.7" fill="#ffffff" opacity="0.8"/><circle cx="362.2" cy="420.7" r="0.5" fill="#fff1dc" opacity="0.9"/><circle cx="147.3" cy="509.4" r="0.4" fill="#ffffff" opacity="0.5"/><circle cx="85.6" cy="538.3" r="0.3" fill="#ffffff" opacity="0.9"/><circle cx="154.9" cy="316.3" r="0.4" fill="#fff1dc" opacity="0.9"/><circle cx="35.7" cy="151.5" r="0.6" fill="#cfe0ff" opacity="0.6"/><circle cx="353.7" cy="531.8" r="0.9" fill="#dfe8ff" opacity="0.4"/><circle cx="405.8" cy="232.3" r="0.3" fill="#cfe0ff" opacity="0.8"/><circle cx="126.3" cy="593.3" r="0.3" fill="#ffffff" opacity="0.6"/><circle cx="22.5" cy="76.2" r="0.5" fill="#cfe0ff" opacity="0.8"/><circle cx="524.3" cy="84.3" r="0.4" fill="#dfe8ff" opacity="0.8"/><circle cx="565.2" cy="173.5" r="0.8" fill="#fff1dc" opacity="0.4"/><circle cx="483.7" cy="608.1" r="0.7" fill="#dfe8ff" opacity="0.6"/><circle cx="129.1" cy="441.6" r="0.9" fill="#cfe0ff" opacity="0.9"/><circle cx="204.5" cy="301.1" r="0.3" fill="#dfe8ff" opacity="0.9"/><circle cx="391.8" cy="443.9" r="0.8" fill="#ffffff" opacity="0.4"/><circle cx="313.6" cy="318.5" r="0.6" fill="#ffffff" opacity="0.9"/><circle cx="569.4" cy="282.1" r="0.5" fill="#ffffff" opacity="0.7"/><circle cx="209.1" cy="338.8" r="0.5" fill="#ffffff" opacity="0.9"/><circle cx="155.6" cy="535.1" r="0.3" fill="#fff1dc" opacity="0.8"/><circle cx="133.6" cy="616.4" r="0.6" fill="#fff1dc" opacity="0.9"/><circle cx="295.9" cy="51.5" r="0.6" fill="#dfe8ff" opacity="0.8"/><circle cx="380.9" cy="145.9" r="1.5" fill="#dfe8ff" opacity="0.4"/><circle cx="487.2" cy="255.2" r="0.4" fill="#fff1dc" opacity="0.6"/><circle cx="125" cy="243" r="0.3" fill="#ffffff" opacity="0.9"/><circle cx="231.4" cy="513.4" r="0.4" fill="#dfe8ff" opacity="0.8"/><circle cx="441" cy="579.8" r="0.5" fill="#ffffff" opacity="0.9"/><circle cx="475.8" cy="113" r="0.8" fill="#cfe0ff" opacity="0.8"/><circle cx="429.1" cy="293.2" r="0.3" fill="#fff1dc" opacity="0.4"/><circle cx="535.3" cy="64.9" r="0.3" fill="#cfe0ff" opacity="0.8"/><circle cx="218.9" cy="82.8" r="1.3" fill="#fff1dc" opacity="0.9"/><circle cx="364.4" cy="168.7" r="0.4" fill="#cfe0ff" opacity="0.7"/><circle cx="473.1" cy="316.6" r="0.8" fill="#fff1dc" opacity="0.5"/><circle cx="340.7" cy="412" r="0.3" fill="#cfe0ff" opacity="0.3"/><circle cx="536.4" cy="285.6" r="0.7" fill="#cfe0ff" opacity="0.7"/><circle cx="79.7" cy="469" r="0.3" fill="#dfe8ff" opacity="0.5"/><circle cx="553.2" cy="517.3" r="0.3" fill="#fff1dc" opacity="0.5"/><circle cx="142.9" cy="419.8" r="0.3" fill="#dfe8ff" opacity="0.6"/><circle cx="272" cy="417" r="0.3" fill="#fff1dc" opacity="0.4"/><circle cx="4.8" cy="50.9" r="0.4" fill="#dfe8ff" opacity="0.9"/><circle cx="80.3" cy="258" r="0.3" fill="#dfe8ff" opacity="0.9"/><circle cx="179.1" cy="182.1" r="1.2" fill="#dfe8ff" opacity="0.5"/><circle cx="517.7" cy="5.8" r="0.3" fill="#dfe8ff" opacity="0.9"/><circle cx="230.2" cy="340.6" r="0.6" fill="#dfe8ff" opacity="0.7"/><circle cx="290.9" cy="607.7" r="0.7" fill="#fff1dc" opacity="0.6"/><circle cx="298.2" cy="235.9" r="1.1" fill="#cfe0ff" opacity="0.7"/><circle cx="456.1" cy="186.6" r="0.3" fill="#fff1dc" opacity="0.6"/><circle cx="470.5" cy="95.8" r="1.4" fill="#fff1dc" opacity="0.8"/><circle cx="196.3" cy="525.8" r="0.3" fill="#dfe8ff" opacity="0.7"/><circle cx="423" cy="8" r="0.3" fill="#fff1dc" opacity="0.5"/><circle cx="181.6" cy="602.5" r="0.3" fill="#fff1dc" opacity="0.7"/><g opacity="0.7"><circle cx="89" cy="57.8" r="6" fill="#ffffff" opacity=".12"/><circle cx="89" cy="57.8" r="1.5" fill="#fff"/><rect x="77.5" y="57.5" width="23.1" height=".6" fill="url(#pspH)"/><rect x="88.7" y="46.3" width=".6" height="23.1" fill="url(#pspV)"/></g><g opacity="1"><circle cx="460.4" cy="368.2" r="6" fill="#ffffff" opacity=".12"/><circle cx="460.4" cy="368.2" r="1.5" fill="#fff"/><rect x="443.9" y="367.9" width="33" height=".6" fill="url(#pspH)"/><rect x="460.1" y="351.7" width=".6" height="33" fill="url(#pspV)"/></g><g opacity="0.7"><circle cx="138.5" cy="138.3" r="6" fill="#cfe0ff" opacity=".12"/><circle cx="138.5" cy="138.3" r="1.5" fill="#fff"/><rect x="121.6" y="138" width="33.8" height=".6" fill="url(#pspH)"/><rect x="138.2" y="121.4" width=".6" height="33.8" fill="url(#pspV)"/></g><g opacity="0.7"><circle cx="123" cy="516.9" r="6" fill="#fff1dc" opacity=".12"/><circle cx="123" cy="516.9" r="1.5" fill="#fff"/><rect x="110.6" y="516.6" width="24.8" height=".6" fill="url(#pspH)"/><rect x="122.7" y="504.5" width=".6" height="24.8" fill="url(#pspV)"/></g><g opacity="0.7"><circle cx="146.9" cy="182.8" r="6" fill="#fff1dc" opacity=".12"/><circle cx="146.9" cy="182.8" r="1.5" fill="#fff"/><rect x="135.4" y="182.5" width="22.8" height=".6" fill="url(#pspH)"/><rect x="146.6" y="171.3" width=".6" height="22.8" fill="url(#pspV)"/></g></svg>