<svg xmlns="http://www.w3.org/2000/svg" viewBox="0 0 22 22" width="22" height="22" fill="none">
  <path d="M13.0922 3.36946V1.73961C13.0922 1.27436 12.5543 1.01542 12.1906 1.30569L2.8604 8.75177C-0.321404 11.5593 -0.474794 16.4692 2.52582 19.4698C5.5263 22.4704 10.4363 22.3171 13.2437 19.1351L20.6898 9.80489C20.9801 9.44124 20.7211 8.90346 20.256 8.90346H18.6262C18.211 8.90346 17.9428 8.4646 18.132 8.09517L21.7925 0.950365C22.0383 0.470724 21.5251 -0.0425023 21.0451 0.203175L13.9005 3.86349C13.531 4.05286 13.0922 3.78447 13.0922 3.36946ZM7.99167 18.4452C5.53886 18.4452 3.55044 16.4567 3.55044 14.004C3.55044 11.5512 5.53872 9.56274 7.99167 9.5626C10.4445 9.5626 12.4329 11.5512 12.4329 14.004C12.4329 16.4568 10.4445 18.4452 7.99167 18.4452Z" fill="#F4EDE0"/>
</svg>
