<svg xmlns="http://www.w3.org/2000/svg" viewBox="0 0 119 22" width="119" height="22" fill="none">
  <path d="M13.0922 3.36946V1.73961C13.0922 1.27436 12.5543 1.01542 12.1906 1.30569L2.8604 8.75177C-0.321404 11.5593 -0.474794 16.4692 2.52582 19.4698C5.5263 22.4704 10.4363 22.3171 13.2437 19.1351L20.6898 9.80489C20.9801 9.44124 20.7211 8.90346 20.256 8.90346H18.6262C18.211 8.90346 17.9428 8.4646 18.132 8.09517L21.7925 0.950365C22.0383 0.470724 21.5251 -0.0425023 21.0451 0.203175L13.9005 3.86349C13.531 4.05286 13.0922 3.78447 13.0922 3.36946ZM7.99167 18.4452C5.53886 18.4452 3.55044 16.4567 3.55044 14.004C3.55044 11.5512 5.53872 9.56274 7.99167 9.5626C10.4445 9.5626 12.4329 11.5512 12.4329 14.004C12.4329 16.4568 10.4445 18.4452 7.99167 18.4452Z" fill="#F4EDE0"/>
  <path d="M37.3281 4.7041V7.13281H28.4443C28.0365 7.13281 27.7272 7.25599 27.5049 7.49414L27.5039 7.49316C27.2857 7.7331 27.1738 8.0543 27.1738 8.46387C27.1739 8.87891 27.2862 9.19814 27.5029 9.43164C27.7249 9.65893 28.0353 9.77734 28.4443 9.77734H33.6396C33.8881 9.78326 34.1505 9.81855 34.4258 9.88281H34.4268C34.705 9.942 34.9799 10.0364 35.251 10.166C35.5288 10.296 35.7915 10.4618 36.0391 10.6621L36.2207 10.8164C36.3966 10.9789 36.5553 11.1647 36.6973 11.373L36.8359 11.5908C36.9672 11.8156 37.0751 12.0632 37.1592 12.333C37.2719 12.695 37.3281 13.1023 37.3281 13.5537C37.3281 14.0057 37.2691 14.4162 37.1504 14.7842C37.0385 15.1432 36.8883 15.4631 36.6982 15.7422C36.5085 16.0208 36.2853 16.2586 36.0293 16.4551C35.7762 16.6493 35.5131 16.8085 35.2412 16.9326C35.038 17.0254 34.8313 17.0998 34.6211 17.1562L34.4092 17.207C34.1328 17.2658 33.8694 17.2949 33.6201 17.2949H24.8496V14.8672H33.6201C34.0348 14.8672 34.3437 14.7462 34.5596 14.5146L34.5605 14.5137C34.7839 14.2797 34.8994 13.9631 34.8994 13.5537C34.8994 13.3551 34.869 13.1749 34.8096 13.0127C34.7501 12.8505 34.664 12.7114 34.5518 12.5938L34.5508 12.5918C34.4452 12.4756 34.3121 12.385 34.1504 12.3203L34.1494 12.3193C33.9943 12.2552 33.8179 12.2227 33.6201 12.2227H28.4443C28.0706 12.2227 27.669 12.1572 27.2412 12.0283H27.2402C26.8081 11.8922 26.4058 11.6758 26.0342 11.3809H26.0332C25.6647 11.0836 25.3575 10.6953 25.1104 10.2188L25.1094 10.2178C24.865 9.73494 24.7452 9.14893 24.7451 8.46387C24.7451 7.77867 24.8657 7.19517 25.1104 6.71777V6.7168C25.3575 6.24023 25.6647 5.8519 26.0332 5.55469C26.4049 5.25377 26.8075 5.03773 27.2402 4.90723L27.5557 4.81934C27.8669 4.74315 28.1635 4.7041 28.4443 4.7041H37.3281Z" fill="#F4EDE0" stroke="#F4EDE0" stroke-width="0.17729"/>
  <path d="M51.0596 4.7041V7.13281H46.0996V17.2949H43.6709V7.13281H38.7021V4.7041H51.0596Z" fill="#F4EDE0" stroke="#F4EDE0" stroke-width="0.17729"/>
  <path d="M63.8828 4.7041V7.13281H54.8633V14.0469C54.8633 14.3256 54.9363 14.525 55.0703 14.6592C55.2042 14.793 55.4063 14.8671 55.6914 14.8672H63.8828V17.2949H55.6748C55.3529 17.2949 55.0036 17.2385 54.6279 17.127C54.2474 17.014 53.8941 16.8299 53.5684 16.5752L53.5664 16.5742C53.2448 16.3121 52.9751 15.9764 52.7568 15.5693L52.7559 15.5684C52.5401 15.1488 52.4346 14.64 52.4346 14.0469V5.92676C52.4346 5.75978 52.466 5.60083 52.5283 5.45117C52.5899 5.30348 52.6736 5.17347 52.7793 5.06152L52.7812 5.05957C52.8934 4.94742 53.024 4.85991 53.1729 4.79785C53.3229 4.73533 53.4849 4.70413 53.6572 4.7041H63.8828ZM62.8701 9.77734V12.2227H55.5859V9.77734H62.8701Z" fill="#F4EDE0" stroke="#F4EDE0" stroke-width="0.17729"/>
  <path d="M67.6855 4.7041V14.8672H76.835V17.2949H66.4795C66.3072 17.2949 66.1452 17.2647 65.9951 17.2021C65.8475 17.1406 65.7174 17.0568 65.6055 16.9512L65.6016 16.9473C65.4957 16.8352 65.4122 16.7045 65.3506 16.5566C65.2881 16.4066 65.2568 16.2446 65.2568 16.0723V4.7041H67.6855Z" fill="#F4EDE0" stroke="#F4EDE0" stroke-width="0.17729"/>
  <path d="M80.6387 4.7041V14.8672H89.7881V17.2949H79.4326C79.2603 17.2949 79.0983 17.2647 78.9482 17.2021C78.8006 17.1406 78.6705 17.0568 78.5586 16.9512L78.5547 16.9473C78.4489 16.8352 78.3653 16.7045 78.3037 16.5566C78.2412 16.4066 78.21 16.2446 78.21 16.0723V4.7041H80.6387Z" fill="#F4EDE0" stroke="#F4EDE0" stroke-width="0.17729"/>
  <path d="M102.529 4.7041C102.696 4.7041 102.855 4.73556 103.005 4.79785C103.154 4.85992 103.285 4.94732 103.397 5.05957C103.51 5.17175 103.597 5.30234 103.659 5.45117C103.722 5.60083 103.752 5.75978 103.752 5.92676V17.2949H101.324V14.248H93.5898V17.2949H91.1611V11C91.1611 10.0837 91.3194 9.23827 91.6357 8.46484C91.9516 7.69264 92.3911 7.02684 92.9541 6.46973C93.5168 5.91301 94.182 5.47992 94.9482 5.16992C95.7157 4.85945 96.5523 4.7041 97.457 4.7041H102.529ZM97.457 7.13281C97.3932 7.13281 97.2505 7.1438 97.0244 7.16699H97.0225C96.8635 7.17954 96.6826 7.20901 96.4795 7.25684L96.2686 7.31055C95.987 7.38941 95.687 7.51165 95.3682 7.67676C95.055 7.83892 94.7659 8.06311 94.501 8.35059C94.2383 8.63564 94.0184 8.99533 93.8428 9.43164C93.675 9.85693 93.5898 10.3789 93.5898 11V11.8203H101.324V7.13281H97.457Z" fill="#F4EDE0" stroke="#F4EDE0" stroke-width="0.17729"/>
  <path d="M114.896 4.7041C115.407 4.70416 115.845 4.79882 116.207 4.99121H116.208C116.564 5.17495 116.853 5.41077 117.075 5.69824H117.076C117.302 5.97756 117.463 6.28179 117.559 6.61035C117.659 6.93454 117.711 7.24092 117.711 7.52832V8.96582C117.711 9.48641 117.646 9.95411 117.516 10.3682C117.386 10.7799 117.209 11.1469 116.984 11.4668L116.983 11.4658C116.765 11.7785 116.512 12.0485 116.222 12.2734C115.934 12.4965 115.631 12.682 115.313 12.8291H115.312C115.001 12.9703 114.683 13.0738 114.358 13.1387C114.126 13.1861 113.902 13.2149 113.687 13.2275L118.217 17.1396L118.396 17.2949H114.646L114.621 17.2734L109.953 13.2354H108.279V10.8076H113.451C113.726 10.7852 113.973 10.729 114.194 10.6406C114.422 10.5464 114.614 10.4226 114.772 10.2695L114.774 10.2686C114.938 10.116 115.063 9.93316 115.15 9.71973C115.238 9.50129 115.282 9.25054 115.282 8.96582V7.5459C115.282 7.42411 115.265 7.34675 115.241 7.30273L115.237 7.29395C115.214 7.23848 115.185 7.20729 115.155 7.19043L115.145 7.18457L115.198 7.11328L115.145 7.18359C115.111 7.15888 115.075 7.14478 115.033 7.14062H115.032C114.983 7.1352 114.938 7.13283 114.896 7.13281H107.557V17.2949H105.128V5.92676C105.128 5.75978 105.159 5.60083 105.222 5.45117C105.283 5.30348 105.367 5.17347 105.473 5.06152L105.475 5.05957C105.587 4.94742 105.717 4.85991 105.866 4.79785C106.016 4.73533 106.178 4.70413 106.351 4.7041H114.896Z" fill="#F4EDE0" stroke="#F4EDE0" stroke-width="0.17729"/>
</svg>
