<svg xmlns="http://www.w3.org/2000/svg" width="100%" height="100%" viewBox="0 0 582 620" preserveAspectRatio="xMidYMid slice" style="display: block" aria-hidden="true"><defs><clipPath id="pdisk"><ellipse cx="291" cy="292" rx="158" ry="147.7"/></clipPath><filter id="pturb" x="-10%" y="-10%" width="120%" height="120%"><feTurbulence type="fractalNoise" baseFrequency=".004 .06" numOctaves="3" seed="21"/><feDisplacementMap in="SourceGraphic" scale="16"/></filter><filter id="pb1"><feGaussianBlur stdDeviation=".8"/></filter><radialGradient id="pgrs" cx=".5" cy=".5" r=".5"><stop offset="0" stop-color="#e8a17a"/><stop offset=".55" stop-color="#c8643c"/><stop offset=".85" stop-color="#a44a2c"/><stop offset="1" stop-color="#f0d8c0"/></radialGradient><radialGradient id="plimb" cx="0.4" cy="0.4" r=".66"><stop offset="0" stop-color="#000" stop-opacity="0"/><stop offset=".7" stop-color="#05060a" stop-opacity=".14"/><stop offset=".92" stop-color="#030305" stop-opacity=".5"/><stop offset="1" stop-color="#010102" stop-opacity=".82"/></radialGradient><linearGradient id="pterm" x1="0.1" y1="0.1" x2="0.9" y2="0.9"><stop offset="0" stop-color="#000" stop-opacity="0"/><stop offset="0.6" stop-color="#000" stop-opacity="0"/><stop offset="0.9" stop-color="#03030a" stop-opacity=".6"/><stop offset="1" stop-color="#010104" stop-opacity=".92"/></linearGradient></defs><g clip-path="url(#pdisk)"><g filter="url(#pturb)"><rect x="113" y="144.3" width="356" height="44.3" fill="#9aa0a8"/><rect x="113" y="170.9" width="356" height="44.3" fill="#b8a58c"/><rect x="113" y="194.5" width="356" height="44.3" fill="#d8c8aa"/><rect x="113" y="218.1" width="356" height="44.3" fill="#a88a6a"/><rect x="113" y="232.9" width="356" height="44.3" fill="#e6d6b8"/><rect x="113" y="253.6" width="356" height="44.3" fill="#9c6a44"/><rect x="113" y="271.3" width="356" height="44.3" fill="#b07a50"/><rect x="113" y="283.1" width="356" height="44.3" fill="#f4ead4"/><rect x="113" y="306.8" width="356" height="44.3" fill="#e8d2a8"/><rect x="113" y="315.6" width="356" height="44.3" fill="#a8704a"/><rect x="113" y="336.3" width="356" height="44.3" fill="#8e5a38"/><rect x="113" y="348.1" width="356" height="44.3" fill="#e8d8bc"/><rect x="113" y="368.8" width="356" height="44.3" fill="#b89470"/><rect x="113" y="386.5" width="356" height="44.3" fill="#d8c8aa"/><rect x="113" y="410.2" width="356" height="44.3" fill="#a8a092"/><path d="M113 350.2H469" stroke="#6a4428" stroke-opacity="0.1" stroke-width="1.6"/><path d="M113 168.3H469" stroke="#6a4428" stroke-opacity="0.1" stroke-width="1.2"/><path d="M113 180H469" stroke="#fff4e0" stroke-opacity="0.1" stroke-width="2.3"/><path d="M113 174.5H469" stroke="#6a4428" stroke-opacity="0.2" stroke-width="3"/><path d="M113 155.2H469" stroke="#6a4428" stroke-opacity="0.2" stroke-width="0.6"/><path d="M113 429.8H469" stroke="#c89870" stroke-opacity="0.1" stroke-width="1.9"/><path d="M113 404.2H469" stroke="#6a4428" stroke-opacity="0.1" stroke-width="2.1"/><path d="M113 179.6H469" stroke="#6a4428" stroke-opacity="0.2" stroke-width="2"/><path d="M113 419.1H469" stroke="#6a4428" stroke-opacity="0.1" stroke-width="1.2"/><path d="M113 387.9H469" stroke="#fff4e0" stroke-opacity="0.1" stroke-width="2.8"/><path d="M113 184.5H469" stroke="#c89870" stroke-opacity="0.1" stroke-width="1"/><path d="M113 182.1H469" stroke="#c89870" stroke-opacity="0.2" stroke-width="2.1"/><path d="M113 291.5H469" stroke="#6a4428" stroke-opacity="0.2" stroke-width="1.2"/><path d="M113 355.7H469" stroke="#c89870" stroke-opacity="0.2" stroke-width="1.1"/><path d="M113 399.2H469" stroke="#6a4428" stroke-opacity="0.2" stroke-width="2.2"/><path d="M113 429.3H469" stroke="#fff4e0" stroke-opacity="0.1" stroke-width="1.8"/><path d="M113 348.7H469" stroke="#c89870" stroke-opacity="0.2" stroke-width="2.3"/><path d="M113 320.8H469" stroke="#6a4428" stroke-opacity="0.1" stroke-width="0.8"/><path d="M113 370.9H469" stroke="#fff4e0" stroke-opacity="0.2" stroke-width="2.6"/><path d="M113 184.1H469" stroke="#6a4428" stroke-opacity="0.1" stroke-width="2.5"/><path d="M113 253.7H469" stroke="#fff4e0" stroke-opacity="0.2" stroke-width="2"/><path d="M113 284.4H469" stroke="#6a4428" stroke-opacity="0.1" stroke-width="2.3"/><path d="M113 185.9H469" stroke="#6a4428" stroke-opacity="0.2" stroke-width="1.7"/><path d="M113 430.4H469" stroke="#fff4e0" stroke-opacity="0.2" stroke-width="2.2"/><path d="M113 355.2H469" stroke="#6a4428" stroke-opacity="0.1" stroke-width="2.2"/><path d="M113 420H469" stroke="#6a4428" stroke-opacity="0.1" stroke-width="1.6"/><path d="M113 277.7H469" stroke="#fff4e0" stroke-opacity="0.2" stroke-width="1.8"/><path d="M113 215.5H469" stroke="#fff4e0" stroke-opacity="0.1" stroke-width="0.9"/><path d="M113 257H469" stroke="#fff4e0" stroke-opacity="0.2" stroke-width="1.3"/><path d="M113 345.8H469" stroke="#6a4428" stroke-opacity="0.1" stroke-width="1"/><path d="M113 163.2H469" stroke="#c89870" stroke-opacity="0.2" stroke-width="1.2"/><path d="M113 181.1H469" stroke="#c89870" stroke-opacity="0.2" stroke-width="1"/><path d="M113 232.3H469" stroke="#c89870" stroke-opacity="0.1" stroke-width="0.7"/><path d="M113 410.3H469" stroke="#fff4e0" stroke-opacity="0.2" stroke-width="2.5"/><path d="M113 224.7H469" stroke="#fff4e0" stroke-opacity="0.2" stroke-width="2.1"/><path d="M113 308.2H469" stroke="#6a4428" stroke-opacity="0.2" stroke-width="2.1"/><path d="M113 181.1H469" stroke="#6a4428" stroke-opacity="0.2" stroke-width="1.8"/><path d="M113 323.4H469" stroke="#fff4e0" stroke-opacity="0.2" stroke-width="2"/><path d="M113 331.9H469" stroke="#fff4e0" stroke-opacity="0.1" stroke-width="1.8"/><path d="M113 185.7H469" stroke="#fff4e0" stroke-opacity="0.2" stroke-width="1.1"/><path d="M113 295H469" stroke="#6a4428" stroke-opacity="0.2" stroke-width="1.9"/><path d="M113 335.6H469" stroke="#c89870" stroke-opacity="0.2" stroke-width="1.6"/><path d="M113 431.3H469" stroke="#c89870" stroke-opacity="0.2" stroke-width="1.7"/><path d="M113 418.7H469" stroke="#fff4e0" stroke-opacity="0.2" stroke-width="0.9"/><path d="M113 359.6H469" stroke="#c89870" stroke-opacity="0.2" stroke-width="1.8"/><path d="M113 366.7H469" stroke="#c89870" stroke-opacity="0.2" stroke-width="2.8"/><path d="M113 195.6H469" stroke="#6a4428" stroke-opacity="0.1" stroke-width="1.9"/><path d="M113 245.6H469" stroke="#6a4428" stroke-opacity="0.2" stroke-width="2.1"/><path d="M113 334.4H469" stroke="#c89870" stroke-opacity="0.2" stroke-width="0.6"/><path d="M113 408H469" stroke="#c89870" stroke-opacity="0.1" stroke-width="3"/><path d="M113 217.4H469" stroke="#c89870" stroke-opacity="0.1" stroke-width="1.1"/><path d="M113 194.7H469" stroke="#6a4428" stroke-opacity="0.2" stroke-width="0.9"/><path d="M113 174.5H469" stroke="#c89870" stroke-opacity="0.2" stroke-width="2.6"/><path d="M113 175.3H469" stroke="#fff4e0" stroke-opacity="0.2" stroke-width="1.3"/><path d="M113 299.2H469" stroke="#c89870" stroke-opacity="0.1" stroke-width="2.7"/><path d="M113 408.3H469" stroke="#6a4428" stroke-opacity="0.2" stroke-width="1.4"/><path d="M113 286.3H469" stroke="#c89870" stroke-opacity="0.2" stroke-width="1.7"/><path d="M113 156.9H469" stroke="#fff4e0" stroke-opacity="0.2" stroke-width="2.9"/><path d="M113 317.6H469" stroke="#6a4428" stroke-opacity="0.1" stroke-width="2.1"/><path d="M113 379.1H469" stroke="#fff4e0" stroke-opacity="0.2" stroke-width="2.1"/><ellipse cx="348.3" cy="300.9" rx="11.9" ry="3" fill="#fff6e4" opacity=".4"/><ellipse cx="243" cy="342.2" rx="6.3" ry="2.1" fill="#fff6e4" opacity=".4"/><ellipse cx="196.5" cy="262.5" rx="4.4" ry="2" fill="#fff6e4" opacity=".4"/><ellipse cx="236.2" cy="300.9" rx="7.1" ry="2.3" fill="#fff6e4" opacity=".4"/><ellipse cx="199.7" cy="300.9" rx="10.2" ry="2.4" fill="#fff6e4" opacity=".4"/><ellipse cx="321" cy="300.9" rx="9.2" ry="2.2" fill="#fff6e4" opacity=".4"/><ellipse cx="283.7" cy="342.2" rx="4.8" ry="2.7" fill="#fff6e4" opacity=".4"/><ellipse cx="252.1" cy="300.9" rx="8.3" ry="2.2" fill="#fff6e4" opacity=".4"/><ellipse cx="194.6" cy="262.5" rx="5.2" ry="1.8" fill="#fff6e4" opacity=".4"/><ellipse cx="175.6" cy="262.5" rx="8.5" ry="2.6" fill="#fff6e4" opacity=".4"/><ellipse cx="415.1" cy="300.9" rx="10.1" ry="2.3" fill="#fff6e4" opacity=".4"/><ellipse cx="172.3" cy="262.5" rx="10.6" ry="2.3" fill="#fff6e4" opacity=".4"/><ellipse cx="287.6" cy="342.2" rx="9.8" ry="2.8" fill="#fff6e4" opacity=".4"/><ellipse cx="294.9" cy="300.9" rx="6" ry="1.6" fill="#fff6e4" opacity=".4"/><ellipse cx="296.2" cy="300.9" rx="10.4" ry="2.9" fill="#fff6e4" opacity=".4"/><ellipse cx="198.5" cy="342.2" rx="4.4" ry="2.9" fill="#fff6e4" opacity=".4"/><ellipse cx="316.7" cy="262.5" rx="5.3" ry="1.7" fill="#fff6e4" opacity=".4"/><ellipse cx="375.1" cy="300.9" rx="8.7" ry="2.4" fill="#fff6e4" opacity=".4"/></g><ellipse cx="334.4" cy="336.3" rx="30" ry="16" fill="#f4e4cc" opacity=".7"/><ellipse cx="338.4" cy="336.3" rx="24" ry="12" fill="url(#pgrs)"/><ellipse cx="338.4" cy="336.3" rx="14" ry="6" fill="none" stroke="#f8d8b8" stroke-opacity=".4"/><ellipse cx="291" cy="292" rx="158" ry="147.7" fill="url(#plimb)"/><ellipse cx="291" cy="292" rx="158" ry="147.7" fill="url(#pterm)"/></g><ellipse cx="291" cy="292" rx="157.5" ry="147.2" fill="none" stroke="#fff3d6" stroke-opacity=".2"/><circle cx="75" cy="298" r="3.4" fill="#f0d890"/><circle cx="76.2" cy="298" r="2.9" fill="#000" opacity=".4"/><circle cx="523" cy="294" r="3" fill="#ece4d4"/><circle cx="524" cy="294" r="2.5" fill="#000" opacity=".4"/><circle cx="33" cy="300" r="4.8" fill="#c8bca8"/><circle cx="34.7" cy="300" r="4.1" fill="#000" opacity=".4"/><circle cx="559" cy="297" r="4.4" fill="#8a7c6c"/><circle cx="560.5" cy="297" r="3.7" fill="#000" opacity=".4"/><filter id="pogr" x="0" y="0" width="100%" height="100%"><feTurbulence type="fractalNoise" baseFrequency=".85" numOctaves="2" stitchTiles="stitch"/><feColorMatrix type="saturate" values="0"/></filter><rect width="582" height="620" filter="url(#pogr)" opacity="0.1" style="mix-blend-mode: overlay"/></svg>