<svg xmlns="http://www.w3.org/2000/svg" width="100%" height="100%" viewBox="0 0 582 832" preserveAspectRatio="xMidYMid slice" style="display: block" aria-hidden="true"><defs><radialGradient id="pbase" cx=".36" cy=".4" r=".78"><stop offset="0" stop-color="#f6c66a" stop-opacity="1"/><stop offset="0.3" stop-color="#e8a648" stop-opacity="1"/><stop offset="0.7" stop-color="#c8803a" stop-opacity="1"/><stop offset="0.9" stop-color="#9a5a2a" stop-opacity="1"/><stop offset="1" stop-color="#6a3a1c" stop-opacity="1"/></radialGradient><clipPath id="pdisk"><circle cx="324" cy="366" r="142"/></clipPath><linearGradient id="pterm" x1="0.1" y1="0.1" x2="0.9" y2="0.9"><stop offset="0" stop-color="#000" stop-opacity="0"/><stop offset="0.5" stop-color="#000" stop-opacity="0"/><stop offset="0.7" stop-color="#140804" stop-opacity="0.8"/><stop offset="0.9" stop-color="#080302" stop-opacity="1"/><stop offset="1" stop-color="#050201" stop-opacity="1"/></linearGradient><radialGradient id="plimb" cx=".5" cy=".5" r=".5"><stop offset="0" stop-color="#000" stop-opacity="0"/><stop offset="0.6" stop-color="#3a1a08" stop-opacity="0.1"/><stop offset="0.9" stop-color="#2a1006" stop-opacity="0.3"/><stop offset="1" stop-color="#1a0804" stop-opacity="0.5"/></radialGradient><radialGradient id="phaze" cx=".5" cy=".5" r=".5"><stop offset="0" stop-color="#ffb050" stop-opacity="0"/><stop offset="0.9" stop-color="#ffb050" stop-opacity="0"/><stop offset="0.9" stop-color="#ffc070" stop-opacity="0.5"/><stop offset="0.9" stop-color="#ffb060" stop-opacity="0.1"/><stop offset="1" stop-color="#ffb060" stop-opacity="0"/></radialGradient><radialGradient id="pblue" cx=".5" cy=".5" r=".5"><stop offset="0" stop-color="#7ab0ff" stop-opacity="0"/><stop offset="0.9" stop-color="#7ab0ff" stop-opacity="0"/><stop offset="1" stop-color="#b8d6ff" stop-opacity="1"/><stop offset="1" stop-color="#7aa8ff" stop-opacity="0.5"/><stop offset="1" stop-color="#6a9aff" stop-opacity="0"/></radialGradient><filter id="ptn" x="0" y="0" width="100%" height="100%" color-interpolation-filters="sRGB"><feTurbulence type="fractalNoise" baseFrequency=".006 .02" numOctaves="4" seed="21"/><feColorMatrix type="matrix" values="0 0 0 0 0.3  0 0 0 0 0.1  0 0 0 0 0.1  2.2 0 0 0 -0.9"/></filter><filter id="ptm" x="0" y="0" width="100%" height="100%" color-interpolation-filters="sRGB"><feTurbulence type="fractalNoise" baseFrequency=".03" numOctaves="3" seed="23"/><feColorMatrix type="matrix" values="0 0 0 0 1  0 0 0 0 0.9  0 0 0 0 0.7  2.4 0 0 0 -1.1"/></filter><filter id="pb2" x="-40%" y="-40%" width="180%" height="180%"><feGaussianBlur stdDeviation="2"/></filter><filter id="pb6" x="-40%" y="-40%" width="180%" height="180%"><feGaussianBlur stdDeviation="6"/></filter><filter id="pb14" x="-40%" y="-40%" width="180%" height="180%"><feGaussianBlur stdDeviation="14"/></filter><filter id="pb30" x="-60%" y="-60%" width="220%" height="220%"><feGaussianBlur stdDeviation="30"/></filter><linearGradient id="plit" x1="0.9" y1="0.8" x2="0.1" y2="0.1"><stop offset="0" stop-color="#333" stop-opacity="1"/><stop offset="0.5" stop-color="#555" stop-opacity="1"/><stop offset="0.8" stop-color="#fff" stop-opacity="1"/><stop offset="1" stop-color="#fff" stop-opacity="1"/></linearGradient><mask id="plm" maskUnits="userSpaceOnUse" x="0" y="0" width="582" height="832"><rect x="142" y="184" width="364" height="364" fill="url(#plit)"/></mask><linearGradient id="pcalm" x1="0" y1="0" x2="0" y2="1"><stop offset="0" stop-color="#020204" stop-opacity="0"/><stop offset="0.4" stop-color="#020204" stop-opacity="0.6"/><stop offset="1" stop-color="#020204" stop-opacity="1"/></linearGradient></defs><circle cx="324" cy="366" r="172" fill="#ff9a40" opacity=".16" filter="url(#pb30)"/><g mask="url(#plm)"><circle cx="324" cy="366" r="156.2" fill="none" stroke="#8ab8ff" stroke-opacity=".22" stroke-width="10" filter="url(#pb6)"/></g><g clip-path="url(#pdisk)"><circle cx="324" cy="366" r="142" fill="url(#pbase)"/><rect x="182" y="224" width="284" height="36.9" fill="#7a4420" opacity="0.5" filter="url(#pb14)"/><rect x="182" y="255.2" width="284" height="14.2" fill="#a8642c" opacity="0.4" filter="url(#pb14)"/><rect x="182" y="280.8" width="284" height="8.5" fill="#f8c878" opacity="0.2" filter="url(#pb14)"/><rect x="182" y="323.4" width="284" height="19.9" fill="#d89048" opacity="0.2" filter="url(#pb14)"/><rect x="182" y="373.1" width="284" height="25.6" fill="#f8c070" opacity="0.2" filter="url(#pb14)"/><rect x="182" y="422.8" width="284" height="28.4" fill="#ffd890" opacity="0.2" filter="url(#pb14)"/><rect x="182" y="472.5" width="284" height="42.6" fill="#c88848" opacity="0.2" filter="url(#pb14)"/><rect x="182" y="224" width="284" height="284" filter="url(#ptn)" opacity=".35" style="mix-blend-mode: multiply"/><rect x="182" y="224" width="284" height="284" filter="url(#ptm)" opacity=".06" style="mix-blend-mode: screen"/><path d="M451.8 380.6Q442.1 386 426.2 389.5Q410.2 393.1 403.5 396.9Q396.7 400.7 372.9 400.9Q349.1 401.1 331.6 402.5Q314 403.9 286.4 406.8Q258.9 409.7 233.7 407.2Q208.6 404.7 214.3 398.8Q220.1 392.9 207.7 389.5Q195.3 386 213.1 382.9Q230.8 379.9 225.3 374.6Q219.8 369.2 246.6 368.9Q273.4 368.6 293.7 365.7Q314 362.8 338.7 363.8Q363.4 364.8 380.2 368Q397 371.2 429.2 373.2Q461.4 375.1 451.8 380.6Z" fill="#5a2a10" opacity=".14" filter="url(#pb14)"/><path d="M393.9 370.2Q403.7 376 393.3 381.6Q382.9 387.1 376.7 391.1Q370.6 395.1 362.3 399.4Q354 403.7 342.3 403.3Q330.7 402.9 329 394.6Q327.3 386.3 324 381.1Q320.7 376 322.7 370.4Q324.7 364.7 329.7 359.2Q334.7 353.7 344.3 352.8Q354 352 367.5 348.4Q381.1 344.7 382.6 354.6Q384.2 364.4 393.9 370.2Z" fill="#ffe0a0" opacity=".14" filter="url(#pb14)"/><circle cx="324" cy="366" r="142" fill="url(#plimb)"/><circle cx="324" cy="366" r="142" fill="url(#pterm)"/></g><g mask="url(#plm)"><circle cx="324" cy="366" r="154.8" fill="url(#phaze)"/></g><g mask="url(#plm)"><circle cx="324" cy="366" r="159" fill="url(#pblue)"/><circle cx="324" cy="366" r="153.6" fill="none" stroke="#b8d4ff" stroke-opacity=".5" stroke-width="1.4" filter="url(#pb2)"/></g><rect y="540" width="582" height="292" fill="url(#pcalm)" opacity="0.6"/><filter id="pogr" x="0" y="0" width="100%" height="100%"><feTurbulence type="fractalNoise" baseFrequency=".85" numOctaves="2" stitchTiles="stitch"/><feColorMatrix type="saturate" values="0"/></filter><rect width="582" height="832" filter="url(#pogr)" opacity="0.1" style="mix-blend-mode: overlay"/></svg>