<svg xmlns="http://www.w3.org/2000/svg" width="100%" height="100%" viewBox="0 0 582 832" preserveAspectRatio="xMidYMid slice" style="display: block" aria-hidden="true"><defs><filter id="pgn" x="0" y="0" width="100%" height="100%"><feTurbulence type="fractalNoise" baseFrequency=".02" numOctaves="5" seed="11"/><feColorMatrix type="saturate" values="0"/></filter><filter id="pfn" x="0" y="0" width="100%" height="100%"><feTurbulence type="fractalNoise" baseFrequency=".14" numOctaves="3" seed="12"/><feColorMatrix type="saturate" values="0"/></filter><filter id="pb1" x="-0%" y="-0%" width="100%" height="100%"><feGaussianBlur stdDeviation="1.2"/></filter><filter id="pb3" x="-0%" y="-0%" width="100%" height="100%"><feGaussianBlur stdDeviation="3.5"/></filter><filter id="pb8" x="-30%" y="-30%" width="160%" height="160%"><feGaussianBlur stdDeviation="9"/></filter><filter id="pb20" x="-40%" y="-40%" width="180%" height="180%"><feGaussianBlur stdDeviation="22"/></filter><radialGradient id="pground" cx=".5" cy=".38" r=".9"><stop offset="0" stop-color="#8a8780"/><stop offset=".5" stop-color="#5e5c56"/><stop offset="1" stop-color="#2a2926"/></radialGradient><radialGradient id="pfloor" cx=".45" cy=".42" r=".7"><stop offset="0" stop-color="#7d7a72"/><stop offset=".75" stop-color="#5b5953"/><stop offset="1" stop-color="#3a3935"/></radialGradient><linearGradient id="pwallL" x1="0" y1="0" x2="1" y2="1"><stop offset="0" stop-color="#151412"/><stop offset="1" stop-color="#151412" stop-opacity="0"/></linearGradient><linearGradient id="pwallR" x1="1" y1="1" x2="0" y2="0"><stop offset="0" stop-color="#f1eee6"/><stop offset="1" stop-color="#f1eee6" stop-opacity="0"/></linearGradient><radialGradient id="pvig" cx=".5" cy=".42" r=".8"><stop offset=".45" stop-color="#000" stop-opacity="0"/><stop offset="1" stop-color="#000" stop-opacity=".6"/></radialGradient><clipPath id="pbowl"><path d="M436.2 290Q440.9 310 436.8 330.2Q432.8 350.4 426.6 370.5Q420.4 390.7 403.8 404.1Q387.1 417.6 370.7 431.1Q354.3 444.5 333.4 449.4Q312.4 454.4 291.3 452.6Q270.1 450.8 249 447.5Q227.8 444.2 211.5 430.8Q195.1 417.3 179.5 403.3Q163.8 389.3 157 369.7Q150.2 350.1 147.1 330.1Q144 310 145 289.4Q146 268.7 152.9 248.5Q159.8 228.2 177.1 215.1Q194.5 201.9 211.9 190.4Q229.3 178.9 249.2 170.7Q269.1 162.6 291.3 160.7Q313.4 158.8 334 166.9Q354.5 175.1 372.1 187.3Q389.7 199.5 406.7 213.4Q423.7 227.3 427.6 248.6Q431.6 270 436.2 290Z"/></clipPath></defs><rect width="582" height="832" fill="url(#pground)"/><rect width="582" height="832" filter="url(#pgn)" opacity=".55" style="mix-blend-mode: multiply"/><rect width="582" height="832" filter="url(#pfn)" opacity=".16" style="mix-blend-mode: overlay"/></svg>