<svg xmlns="http://www.w3.org/2000/svg" width="100%" height="100%" viewBox="0 0 582 832" preserveAspectRatio="xMidYMid slice" style="display: block" aria-hidden="true"><defs><clipPath id="pglobe"><ellipse rx="120" ry="110.1"/></clipPath><clipPath id="pback"><path d="M-300 0A300 122 0 0 1 300 0Z"/></clipPath><radialGradient id="plimb" cx=".42" cy=".38" r=".62"><stop offset="0" stop-color="#000" stop-opacity="0"/><stop offset=".7" stop-color="#140a03" stop-opacity=".16"/><stop offset=".92" stop-color="#0a0602" stop-opacity=".55"/><stop offset="1" stop-color="#050301" stop-opacity=".85"/></radialGradient><linearGradient id="pterm" x1=".1" y1=".05" x2=".95" y2=".95"><stop offset="0" stop-color="#000" stop-opacity="0"/><stop offset=".56" stop-color="#000" stop-opacity="0"/><stop offset=".82" stop-color="#03030a" stop-opacity=".55"/><stop offset="1" stop-color="#010104" stop-opacity=".9"/></linearGradient><radialGradient id="pti" cx=".35" cy=".35" r=".7"><stop offset="0" stop-color="#f4cf8c"/><stop offset=".7" stop-color="#b9823e"/><stop offset="1" stop-color="#5a3a15"/></radialGradient><radialGradient id="pglo" cx=".5" cy=".5" r=".5"><stop offset="0" stop-color="#ffe3a3" stop-opacity=".22"/><stop offset="1" stop-color="#ffe3a3" stop-opacity="0"/></radialGradient></defs><g transform="translate(291 340) rotate(-16) scale(0.8)"><ellipse rx="190" ry="170" fill="url(#pglo)"/><g fill="none" stroke-width=".62"><path d="M-133.2 0A133.2 54.2 0 0 1 133.2 0" stroke="#8d8578" stroke-opacity="0"/><path d="M-133.7 0A133.7 54.4 0 0 1 133.7 0" stroke="#8d8578" stroke-opacity="0"/><path d="M-134.1 0A134.1 54.5 0 0 1 134.1 0" stroke="#8d8578" stroke-opacity="0"/><path d="M-134.6 0A134.6 54.7 0 0 1 134.6 0" stroke="#8d8578" stroke-opacity="0"/><path d="M-135 0A135 54.9 0 0 1 135 0" stroke="#8d8578" stroke-opacity="0"/><path d="M-135.5 0A135.5 55.1 0 0 1 135.5 0" stroke="#8d8578" stroke-opacity="0"/><path d="M-135.9 0A135.9 55.3 0 0 1 135.9 0" stroke="#8d8578" stroke-opacity="0"/><path d="M-136.4 0A136.4 55.5 0 0 1 136.4 0" stroke="#8d8578" stroke-opacity="0"/><path d="M-136.9 0A136.9 55.7 0 0 1 136.9 0" stroke="#8d8578" stroke-opacity="0"/><path d="M-137.3 0A137.3 55.9 0 0 1 137.3 0" stroke="#8d8578" stroke-opacity="0"/><path d="M-137.8 0A137.8 56 0 0 1 137.8 0" stroke="#8d8578" stroke-opacity="0"/><path d="M-138.2 0A138.2 56.2 0 0 1 138.2 0" stroke="#8d8578" stroke-opacity="0"/><path d="M-138.7 0A138.7 56.4 0 0 1 138.7 0" stroke="#8d8578" stroke-opacity="0"/><path d="M-139.2 0A139.2 56.6 0 0 1 139.2 0" stroke="#8d8578" stroke-opacity="0"/><path d="M-139.6 0A139.6 56.8 0 0 1 139.6 0" stroke="#8d8578" stroke-opacity="0"/><path d="M-140.1 0A140.1 57 0 0 1 140.1 0" stroke="#8d8578" stroke-opacity="0"/><path d="M-140.5 0A140.5 57.2 0 0 1 140.5 0" stroke="#8d8578" stroke-opacity="0"/><path d="M-141 0A141 57.3 0 0 1 141 0" stroke="#8d8578" stroke-opacity="0"/><path d="M-141.4 0A141.4 57.5 0 0 1 141.4 0" stroke="#8d8578" stroke-opacity="0"/><path d="M-141.9 0A141.9 57.7 0 0 1 141.9 0" stroke="#8d8578" stroke-opacity="0"/><path d="M-142.4 0A142.4 57.9 0 0 1 142.4 0" stroke="#8d8578" stroke-opacity="0"/><path d="M-142.8 0A142.8 58.1 0 0 1 142.8 0" stroke="#8d8578" stroke-opacity="0"/><path d="M-143.3 0A143.3 58.3 0 0 1 143.3 0" stroke="#8d8578" stroke-opacity="0"/><path d="M-143.7 0A143.7 58.5 0 0 1 143.7 0" stroke="#8d8578" stroke-opacity="0"/><path d="M-144.2 0A144.2 58.6 0 0 1 144.2 0" stroke="#8d8578" stroke-opacity="0"/><path d="M-144.6 0A144.6 58.8 0 0 1 144.6 0" stroke="#8d8578" stroke-opacity="0"/><path d="M-145.1 0A145.1 59 0 0 1 145.1 0" stroke="#8d8578" stroke-opacity="0"/><path d="M-145.6 0A145.6 59.2 0 0 1 145.6 0" stroke="#8d8578" stroke-opacity="0"/><path d="M-146 0A146 59.4 0 0 1 146 0" stroke="#8d8578" stroke-opacity="0"/><path d="M-146.5 0A146.5 59.6 0 0 1 146.5 0" stroke="#8d8578" stroke-opacity="0"/><path d="M-146.9 0A146.9 59.8 0 0 1 146.9 0" stroke="#8d8578" stroke-opacity="0"/><path d="M-147.4 0A147.4 60 0 0 1 147.4 0" stroke="#8d8578" stroke-opacity="0"/><path d="M-147.9 0A147.9 60.1 0 0 1 147.9 0" stroke="#8d8578" stroke-opacity="0"/><path d="M-148.3 0A148.3 60.3 0 0 1 148.3 0" stroke="#8d8578" stroke-opacity="0"/><path d="M-148.8 0A148.8 60.5 0 0 1 148.8 0" stroke="#a1978a" stroke-opacity="0.1"/><path d="M-149.2 0A149.2 60.7 0 0 1 149.2 0" stroke="#a1978a" stroke-opacity="0.2"/><path d="M-149.7 0A149.7 60.9 0 0 1 149.7 0" stroke="#a1978a" stroke-opacity="0.1"/><path d="M-150.1 0A150.1 61.1 0 0 1 150.1 0" stroke="#a1978a" stroke-opacity="0.2"/><path d="M-150.6 0A150.6 61.3 0 0 1 150.6 0" stroke="#a1978a" stroke-opacity="0.2"/><path d="M-151.1 0A151.1 61.4 0 0 1 151.1 0" stroke="#a1978a" stroke-opacity="0.1"/><path d="M-151.5 0A151.5 61.6 0 0 1 151.5 0" stroke="#a1978a" stroke-opacity="0.2"/><path d="M-152 0A152 61.8 0 0 1 152 0" stroke="#a1978a" stroke-opacity="0.2"/><path d="M-152.4 0A152.4 62 0 0 1 152.4 0" stroke="#a1978a" stroke-opacity="0.2"/><path d="M-152.9 0A152.9 62.2 0 0 1 152.9 0" stroke="#a1978a" stroke-opacity="0.2"/><path d="M-153.3 0A153.3 62.4 0 0 1 153.3 0" stroke="#a1978a" stroke-opacity="0.1"/><path d="M-153.8 0A153.8 62.6 0 0 1 153.8 0" stroke="#a1978a" stroke-opacity="0.1"/><path d="M-154.3 0A154.3 62.7 0 0 1 154.3 0" stroke="#a1978a" stroke-opacity="0.2"/><path d="M-154.7 0A154.7 62.9 0 0 1 154.7 0" stroke="#a1978a" stroke-opacity="0.1"/><path d="M-155.2 0A155.2 63.1 0 0 1 155.2 0" stroke="#a1978a" stroke-opacity="0.2"/><path d="M-155.6 0A155.6 63.3 0 0 1 155.6 0" stroke="#a1978a" stroke-opacity="0.1"/><path d="M-156.1 0A156.1 63.5 0 0 1 156.1 0" stroke="#a1978a" stroke-opacity="0.2"/><path d="M-156.6 0A156.6 63.7 0 0 1 156.6 0" stroke="#a1978a" stroke-opacity="0.1"/><path d="M-157 0A157 63.9 0 0 1 157 0" stroke="#a1978a" stroke-opacity="0.1"/><path d="M-157.5 0A157.5 64 0 0 1 157.5 0" stroke="#a1978a" stroke-opacity="0.2"/><path d="M-157.9 0A157.9 64.2 0 0 1 157.9 0" stroke="#a1978a" stroke-opacity="0.1"/><path d="M-158.4 0A158.4 64.4 0 0 1 158.4 0" stroke="#a1978a" stroke-opacity="0.1"/><path d="M-158.8 0A158.8 64.6 0 0 1 158.8 0" stroke="#a1978a" stroke-opacity="0.1"/><path d="M-159.3 0A159.3 64.8 0 0 1 159.3 0" stroke="#a1978a" stroke-opacity="0.1"/><path d="M-159.8 0A159.8 65 0 0 1 159.8 0" stroke="#a1978a" stroke-opacity="0.1"/><path d="M-160.2 0A160.2 65.2 0 0 1 160.2 0" stroke="#a1978a" stroke-opacity="0.2"/><path d="M-160.7 0A160.7 65.4 0 0 1 160.7 0" stroke="#a1978a" stroke-opacity="0.2"/><path d="M-161.1 0A161.1 65.5 0 0 1 161.1 0" stroke="#a1978a" stroke-opacity="0.1"/><path d="M-161.6 0A161.6 65.7 0 0 1 161.6 0" stroke="#a1978a" stroke-opacity="0.2"/><path d="M-162 0A162 65.9 0 0 1 162 0" stroke="#a1978a" stroke-opacity="0.1"/><path d="M-162.5 0A162.5 66.1 0 0 1 162.5 0" stroke="#a1978a" stroke-opacity="0.1"/><path d="M-163 0A163 66.3 0 0 1 163 0" stroke="#a1978a" stroke-opacity="0.2"/><path d="M-163.4 0A163.4 66.5 0 0 1 163.4 0" stroke="#a1978a" stroke-opacity="0.2"/><path d="M-163.9 0A163.9 66.7 0 0 1 163.9 0" stroke="#a1978a" stroke-opacity="0.1"/><path d="M-164.3 0A164.3 66.8 0 0 1 164.3 0" stroke="#a1978a" stroke-opacity="0.1"/><path d="M-164.8 0A164.8 67 0 0 1 164.8 0" stroke="#a1978a" stroke-opacity="0.1"/><path d="M-165.3 0A165.3 67.2 0 0 1 165.3 0" stroke="#a1978a" stroke-opacity="0.1"/><path d="M-165.7 0A165.7 67.4 0 0 1 165.7 0" stroke="#a1978a" stroke-opacity="0.2"/><path d="M-166.2 0A166.2 67.6 0 0 1 166.2 0" stroke="#a1978a" stroke-opacity="0.1"/><path d="M-166.6 0A166.6 67.8 0 0 1 166.6 0" stroke="#a1978a" stroke-opacity="0.1"/><path d="M-167.1 0A167.1 68 0 0 1 167.1 0" stroke="#a1978a" stroke-opacity="0.2"/><path d="M-167.5 0A167.5 68.1 0 0 1 167.5 0" stroke="#a1978a" stroke-opacity="0.1"/><path d="M-168 0A168 68.3 0 0 1 168 0" stroke="#a1978a" stroke-opacity="0.2"/><path d="M-168.5 0A168.5 68.5 0 0 1 168.5 0" stroke="#a1978a" stroke-opacity="0.1"/><path d="M-168.9 0A168.9 68.7 0 0 1 168.9 0" stroke="#a1978a" stroke-opacity="0.2"/><path d="M-169.4 0A169.4 68.9 0 0 1 169.4 0" stroke="#a1978a" stroke-opacity="0.2"/><path d="M-169.8 0A169.8 69.1 0 0 1 169.8 0" stroke="#a1978a" stroke-opacity="0.2"/><path d="M-170.3 0A170.3 69.3 0 0 1 170.3 0" stroke="#a1978a" stroke-opacity="0.2"/><path d="M-170.7 0A170.7 69.4 0 0 1 170.7 0" stroke="#a1978a" stroke-opacity="0.1"/><path d="M-171.2 0A171.2 69.6 0 0 1 171.2 0" stroke="#a1978a" stroke-opacity="0.2"/><path d="M-171.7 0A171.7 69.8 0 0 1 171.7 0" stroke="#a1978a" stroke-opacity="0.2"/><path d="M-172.1 0A172.1 70 0 0 1 172.1 0" stroke="#a1978a" stroke-opacity="0.1"/><path d="M-172.6 0A172.6 70.2 0 0 1 172.6 0" stroke="#a1978a" stroke-opacity="0.1"/><path d="M-173 0A173 70.4 0 0 1 173 0" stroke="#a1978a" stroke-opacity="0.2"/><path d="M-173.5 0A173.5 70.6 0 0 1 173.5 0" stroke="#a1978a" stroke-opacity="0.1"/><path d="M-174 0A174 70.8 0 0 1 174 0" stroke="#a1978a" stroke-opacity="0.1"/><path d="M-174.4 0A174.4 70.9 0 0 1 174.4 0" stroke="#a1978a" stroke-opacity="0.2"/><path d="M-174.9 0A174.9 71.1 0 0 1 174.9 0" stroke="#a1978a" stroke-opacity="0.1"/><path d="M-175.3 0A175.3 71.3 0 0 1 175.3 0" stroke="#a1978a" stroke-opacity="0.1"/><path d="M-175.8 0A175.8 71.5 0 0 1 175.8 0" stroke="#a1978a" stroke-opacity="0.2"/><path d="M-176.2 0A176.2 71.7 0 0 1 176.2 0" stroke="#a1978a" stroke-opacity="0.1"/><path d="M-176.7 0A176.7 71.9 0 0 1 176.7 0" stroke="#a1978a" stroke-opacity="0.1"/><path d="M-177.2 0A177.2 72.1 0 0 1 177.2 0" stroke="#a1978a" stroke-opacity="0.1"/><path d="M-177.6 0A177.6 72.2 0 0 1 177.6 0" stroke="#a1978a" stroke-opacity="0.2"/><path d="M-178.1 0A178.1 72.4 0 0 1 178.1 0" stroke="#a1978a" stroke-opacity="0.1"/><path d="M-178.5 0A178.5 72.6 0 0 1 178.5 0" stroke="#a1978a" stroke-opacity="0.1"/><path d="M-179 0A179 72.8 0 0 1 179 0" stroke="#a1978a" stroke-opacity="0.1"/><path d="M-179.4 0A179.4 73 0 0 1 179.4 0" stroke="#a1978a" stroke-opacity="0.2"/><path d="M-179.9 0A179.9 73.2 0 0 1 179.9 0" stroke="#a1978a" stroke-opacity="0.1"/><path d="M-180.4 0A180.4 73.4 0 0 1 180.4 0" stroke="#a1978a" stroke-opacity="0.1"/><path d="M-180.8 0A180.8 73.5 0 0 1 180.8 0" stroke="#a1978a" stroke-opacity="0.2"/><path d="M-181.3 0A181.3 73.7 0 0 1 181.3 0" stroke="#a1978a" stroke-opacity="0.2"/><path d="M-181.7 0A181.7 73.9 0 0 1 181.7 0" stroke="#a1978a" stroke-opacity="0.1"/><path d="M-182.2 0A182.2 74.1 0 0 1 182.2 0" stroke="#a1978a" stroke-opacity="0.1"/><path d="M-182.7 0A182.7 74.3 0 0 1 182.7 0" stroke="#a1978a" stroke-opacity="0.1"/><path d="M-183.1 0A183.1 74.5 0 0 1 183.1 0" stroke="#a1978a" stroke-opacity="0.1"/><path d="M-183.6 0A183.6 74.7 0 0 1 183.6 0" stroke="#f3e8cf" stroke-opacity="0.5"/><path d="M-184 0A184 74.9 0 0 1 184 0" stroke="#dccca9" stroke-opacity="0.5"/><path d="M-184.5 0A184.5 75 0 0 1 184.5 0" stroke="#e6d8b8" stroke-opacity="0.4"/><path d="M-184.9 0A184.9 75.2 0 0 1 184.9 0" stroke="#dccca9" stroke-opacity="0.6"/><path d="M-185.4 0A185.4 75.4 0 0 1 185.4 0" stroke="#f3e8cf" stroke-opacity="0.5"/><path d="M-185.9 0A185.9 75.6 0 0 1 185.9 0" stroke="#dccca9" stroke-opacity="0.5"/><path d="M-186.3 0A186.3 75.8 0 0 1 186.3 0" stroke="#e6d8b8" stroke-opacity="0.6"/><path d="M-186.8 0A186.8 76 0 0 1 186.8 0" stroke="#f3e8cf" stroke-opacity="0.6"/><path d="M-187.2 0A187.2 76.2 0 0 1 187.2 0" stroke="#dccca9" stroke-opacity="0.5"/><path d="M-187.7 0A187.7 76.3 0 0 1 187.7 0" stroke="#e6d8b8" stroke-opacity="0.6"/><path d="M-188.1 0A188.1 76.5 0 0 1 188.1 0" stroke="#eee3c8" stroke-opacity="0.4"/><path d="M-188.6 0A188.6 76.7 0 0 1 188.6 0" stroke="#f3e8cf" stroke-opacity="0.6"/><path d="M-189.1 0A189.1 76.9 0 0 1 189.1 0" stroke="#dccca9" stroke-opacity="0.5"/><path d="M-189.5 0A189.5 77.1 0 0 1 189.5 0" stroke="#eee3c8" stroke-opacity="0.6"/><path d="M-190 0A190 77.3 0 0 1 190 0" stroke="#e6d8b8" stroke-opacity="0.6"/><path d="M-190.4 0A190.4 77.5 0 0 1 190.4 0" stroke="#eee3c8" stroke-opacity="0.6"/><path d="M-190.9 0A190.9 77.6 0 0 1 190.9 0" stroke="#dccca9" stroke-opacity="0.5"/><path d="M-191.4 0A191.4 77.8 0 0 1 191.4 0" stroke="#e6d8b8" stroke-opacity="0.4"/><path d="M-191.8 0A191.8 78 0 0 1 191.8 0" stroke="#f3e8cf" stroke-opacity="0.4"/><path d="M-192.3 0A192.3 78.2 0 0 1 192.3 0" stroke="#e6d8b8" stroke-opacity="0.6"/><path d="M-192.7 0A192.7 78.4 0 0 1 192.7 0" stroke="#e6d8b8" stroke-opacity="0.6"/><path d="M-193.2 0A193.2 78.6 0 0 1 193.2 0" stroke="#eee3c8" stroke-opacity="0.4"/><path d="M-193.6 0A193.6 78.8 0 0 1 193.6 0" stroke="#eee3c8" stroke-opacity="0.6"/><path d="M-194.1 0A194.1 78.9 0 0 1 194.1 0" stroke="#dccca9" stroke-opacity="0.6"/><path d="M-194.6 0A194.6 79.1 0 0 1 194.6 0" stroke="#eee3c8" stroke-opacity="0.6"/><path d="M-195 0A195 79.3 0 0 1 195 0" stroke="#e6d8b8" stroke-opacity="0.6"/><path d="M-195.5 0A195.5 79.5 0 0 1 195.5 0" stroke="#eee3c8" stroke-opacity="0.6"/><path d="M-195.9 0A195.9 79.7 0 0 1 195.9 0" stroke="#f3e8cf" stroke-opacity="0.5"/><path d="M-196.4 0A196.4 79.9 0 0 1 196.4 0" stroke="#dccca9" stroke-opacity="0.7"/><path d="M-196.9 0A196.9 80.1 0 0 1 196.9 0" stroke="#eee3c8" stroke-opacity="0.6"/><path d="M-197.3 0A197.3 80.3 0 0 1 197.3 0" stroke="#e6d8b8" stroke-opacity="0.6"/><path d="M-197.8 0A197.8 80.4 0 0 1 197.8 0" stroke="#e6d8b8" stroke-opacity="0.6"/><path d="M-198.2 0A198.2 80.6 0 0 1 198.2 0" stroke="#dccca9" stroke-opacity="0.7"/><path d="M-198.7 0A198.7 80.8 0 0 1 198.7 0" stroke="#dccca9" stroke-opacity="0.6"/><path d="M-199.1 0A199.1 81 0 0 1 199.1 0" stroke="#f3e8cf" stroke-opacity="0.6"/><path d="M-199.6 0A199.6 81.2 0 0 1 199.6 0" stroke="#eee3c8" stroke-opacity="0.6"/><path d="M-200.1 0A200.1 81.4 0 0 1 200.1 0" stroke="#f3e8cf" stroke-opacity="0.7"/><path d="M-200.5 0A200.5 81.6 0 0 1 200.5 0" stroke="#f3e8cf" stroke-opacity="0.7"/><path d="M-201 0A201 81.7 0 0 1 201 0" stroke="#eee3c8" stroke-opacity="0.6"/><path d="M-201.4 0A201.4 81.9 0 0 1 201.4 0" stroke="#f3e8cf" stroke-opacity="0.5"/><path d="M-201.9 0A201.9 82.1 0 0 1 201.9 0" stroke="#dccca9" stroke-opacity="0.6"/><path d="M-202.3 0A202.3 82.3 0 0 1 202.3 0" stroke="#f3e8cf" stroke-opacity="0.6"/><path d="M-202.8 0A202.8 82.5 0 0 1 202.8 0" stroke="#eee3c8" stroke-opacity="0.5"/><path d="M-203.3 0A203.3 82.7 0 0 1 203.3 0" stroke="#e6d8b8" stroke-opacity="0.6"/><path d="M-203.7 0A203.7 82.9 0 0 1 203.7 0" stroke="#eee3c8" stroke-opacity="0.6"/><path d="M-204.2 0A204.2 83 0 0 1 204.2 0" stroke="#f3e8cf" stroke-opacity="0.7"/><path d="M-204.6 0A204.6 83.2 0 0 1 204.6 0" stroke="#eee3c8" stroke-opacity="0.6"/><path d="M-205.1 0A205.1 83.4 0 0 1 205.1 0" stroke="#e6d8b8" stroke-opacity="0.7"/><path d="M-205.6 0A205.6 83.6 0 0 1 205.6 0" stroke="#f3e8cf" stroke-opacity="0.7"/><path d="M-206 0A206 83.8 0 0 1 206 0" stroke="#e6d8b8" stroke-opacity="0.7"/><path d="M-206.5 0A206.5 84 0 0 1 206.5 0" stroke="#eee3c8" stroke-opacity="0.7"/><path d="M-206.9 0A206.9 84.2 0 0 1 206.9 0" stroke="#e6d8b8" stroke-opacity="0.6"/><path d="M-207.4 0A207.4 84.4 0 0 1 207.4 0" stroke="#dccca9" stroke-opacity="0.6"/><path d="M-207.8 0A207.8 84.5 0 0 1 207.8 0" stroke="#e6d8b8" stroke-opacity="0.7"/><path d="M-208.3 0A208.3 84.7 0 0 1 208.3 0" stroke="#eee3c8" stroke-opacity="0.6"/><path d="M-208.8 0A208.8 84.9 0 0 1 208.8 0" stroke="#e6d8b8" stroke-opacity="0.6"/><path d="M-209.2 0A209.2 85.1 0 0 1 209.2 0" stroke="#e6d8b8" stroke-opacity="0.6"/><path d="M-209.7 0A209.7 85.3 0 0 1 209.7 0" stroke="#dccca9" stroke-opacity="0.7"/><path d="M-210.1 0A210.1 85.5 0 0 1 210.1 0" stroke="#e6d8b8" stroke-opacity="0.7"/><path d="M-210.6 0A210.6 85.7 0 0 1 210.6 0" stroke="#e6d8b8" stroke-opacity="0.7"/><path d="M-211 0A211 85.8 0 0 1 211 0" stroke="#e6d8b8" stroke-opacity="0.7"/><path d="M-211.5 0A211.5 86 0 0 1 211.5 0" stroke="#e6d8b8" stroke-opacity="0.7"/><path d="M-212 0A212 86.2 0 0 1 212 0" stroke="#eee3c8" stroke-opacity="0.7"/><path d="M-212.4 0A212.4 86.4 0 0 1 212.4 0" stroke="#dccca9" stroke-opacity="0.7"/><path d="M-212.9 0A212.9 86.6 0 0 1 212.9 0" stroke="#f3e8cf" stroke-opacity="0.6"/><path d="M-213.3 0A213.3 86.8 0 0 1 213.3 0" stroke="#dccca9" stroke-opacity="0.8"/><path d="M-213.8 0A213.8 87 0 0 1 213.8 0" stroke="#e6d8b8" stroke-opacity="0.6"/><path d="M-214.3 0A214.3 87.1 0 0 1 214.3 0" stroke="#f3e8cf" stroke-opacity="0.7"/><path d="M-214.7 0A214.7 87.3 0 0 1 214.7 0" stroke="#e6d8b8" stroke-opacity="0.6"/><path d="M-215.2 0A215.2 87.5 0 0 1 215.2 0" stroke="#e6d8b8" stroke-opacity="0.8"/><path d="M-215.6 0A215.6 87.7 0 0 1 215.6 0" stroke="#e6d8b8" stroke-opacity="0.7"/><path d="M-216.1 0A216.1 87.9 0 0 1 216.1 0" stroke="#eee3c8" stroke-opacity="0.7"/><path d="M-216.5 0A216.5 88.1 0 0 1 216.5 0" stroke="#dccca9" stroke-opacity="0.6"/><path d="M-217 0A217 88.3 0 0 1 217 0" stroke="#eee3c8" stroke-opacity="0.8"/><path d="M-217.5 0A217.5 88.4 0 0 1 217.5 0" stroke="#eee3c8" stroke-opacity="0.7"/><path d="M-217.9 0A217.9 88.6 0 0 1 217.9 0" stroke="#eee3c8" stroke-opacity="0.8"/><path d="M-218.4 0A218.4 88.8 0 0 1 218.4 0" stroke="#e6d8b8" stroke-opacity="0.6"/><path d="M-218.8 0A218.8 89 0 0 1 218.8 0" stroke="#e6d8b8" stroke-opacity="0.8"/><path d="M-219.3 0A219.3 89.2 0 0 1 219.3 0" stroke="#f3e8cf" stroke-opacity="0.8"/><path d="M-219.7 0A219.7 89.4 0 0 1 219.7 0" stroke="#eee3c8" stroke-opacity="0.6"/><path d="M-220.2 0A220.2 89.6 0 0 1 220.2 0" stroke="#eee3c8" stroke-opacity="0.8"/><path d="M-220.7 0A220.7 89.8 0 0 1 220.7 0" stroke="#dccca9" stroke-opacity="0.7"/><path d="M-221.1 0A221.1 89.9 0 0 1 221.1 0" stroke="#eee3c8" stroke-opacity="0.7"/><path d="M-221.6 0A221.6 90.1 0 0 1 221.6 0" stroke="#e6d8b8" stroke-opacity="0.8"/><path d="M-222 0A222 90.3 0 0 1 222 0" stroke="#eee3c8" stroke-opacity="0.6"/><path d="M-222.5 0A222.5 90.5 0 0 1 222.5 0" stroke="#dccca9" stroke-opacity="0.8"/><path d="M-223 0A223 90.7 0 0 1 223 0" stroke="#f3e8cf" stroke-opacity="0.8"/><path d="M-223.4 0A223.4 90.9 0 0 1 223.4 0" stroke="#e6d8b8" stroke-opacity="0.7"/><path d="M-223.9 0A223.9 91.1 0 0 1 223.9 0" stroke="#e6d8b8" stroke-opacity="0.7"/><path d="M-224.3 0A224.3 91.2 0 0 1 224.3 0" stroke="#eee3c8" stroke-opacity="0.7"/><path d="M-224.8 0A224.8 91.4 0 0 1 224.8 0" stroke="#f3e8cf" stroke-opacity="0.7"/><path d="M-225.2 0A225.2 91.6 0 0 1 225.2 0" stroke="#eee3c8" stroke-opacity="0.8"/><path d="M-225.7 0A225.7 91.8 0 0 1 225.7 0" stroke="#eee3c8" stroke-opacity="0.8"/><path d="M-226.2 0A226.2 92 0 0 1 226.2 0" stroke="#eee3c8" stroke-opacity="0.7"/><path d="M-226.6 0A226.6 92.2 0 0 1 226.6 0" stroke="#eee3c8" stroke-opacity="0.7"/><path d="M-227.1 0A227.1 92.4 0 0 1 227.1 0" stroke="#f3e8cf" stroke-opacity="0.7"/><path d="M-227.5 0A227.5 92.5 0 0 1 227.5 0" stroke="#eee3c8" stroke-opacity="0.8"/><path d="M-228 0A228 92.7 0 0 1 228 0" stroke="#eee3c8" stroke-opacity="0.8"/><path d="M-228.4 0A228.4 92.9 0 0 1 228.4 0" stroke="#eee3c8" stroke-opacity="0.7"/><path d="M-228.9 0A228.9 93.1 0 0 1 228.9 0" stroke="#dccca9" stroke-opacity="0.8"/><path d="M-229.4 0A229.4 93.3 0 0 1 229.4 0" stroke="#eee3c8" stroke-opacity="0.9"/><path d="M-229.8 0A229.8 93.5 0 0 1 229.8 0" stroke="#f3e8cf" stroke-opacity="0.8"/><path d="M-230.3 0A230.3 93.7 0 0 1 230.3 0" stroke="#e6d8b8" stroke-opacity="0.7"/><path d="M-230.7 0A230.7 93.8 0 0 1 230.7 0" stroke="#e6d8b8" stroke-opacity="0.8"/><path d="M-231.2 0A231.2 94 0 0 1 231.2 0" stroke="#dccca9" stroke-opacity="0.8"/><path d="M-231.7 0A231.7 94.2 0 0 1 231.7 0" stroke="#dccca9" stroke-opacity="0.9"/><path d="M-232.1 0A232.1 94.4 0 0 1 232.1 0" stroke="#dccca9" stroke-opacity="0.8"/><path d="M-232.6 0A232.6 94.6 0 0 1 232.6 0" stroke="#f3e8cf" stroke-opacity="0.9"/><path d="M-233 0A233 94.8 0 0 1 233 0" stroke="#eee3c8" stroke-opacity="0.7"/><path d="M-233.5 0A233.5 95 0 0 1 233.5 0" stroke="#dccca9" stroke-opacity="0.8"/><path d="M-233.9 0A233.9 95.2 0 0 1 233.9 0" stroke="#e6d8b8" stroke-opacity="0.7"/><path d="M-234.4 0A234.4 95.3 0 0 1 234.4 0" stroke="#8f8778" stroke-opacity="0"/><path d="M-234.9 0A234.9 95.5 0 0 1 234.9 0" stroke="#8f8778" stroke-opacity="0"/><path d="M-235.3 0A235.3 95.7 0 0 1 235.3 0" stroke="#8f8778" stroke-opacity="0"/><path d="M-235.8 0A235.8 95.9 0 0 1 235.8 0" stroke="#8f8778" stroke-opacity="0"/><path d="M-236.2 0A236.2 96.1 0 0 1 236.2 0" stroke="#8f8778" stroke-opacity="0"/><path d="M-236.7 0A236.7 96.3 0 0 1 236.7 0" stroke="#8f8778" stroke-opacity="0"/><path d="M-237.1 0A237.1 96.5 0 0 1 237.1 0" stroke="#8f8778" stroke-opacity="0"/><path d="M-237.6 0A237.6 96.6 0 0 1 237.6 0" stroke="#8f8778" stroke-opacity="0"/><path d="M-238.1 0A238.1 96.8 0 0 1 238.1 0" stroke="#8f8778" stroke-opacity="0"/><path d="M-238.5 0A238.5 97 0 0 1 238.5 0" stroke="#8f8778" stroke-opacity="0.2"/><path d="M-239 0A239 97.2 0 0 1 239 0" stroke="#8f8778" stroke-opacity="0.2"/><path d="M-239.4 0A239.4 97.4 0 0 1 239.4 0" stroke="#8f8778" stroke-opacity="0.2"/><path d="M-239.9 0A239.9 97.6 0 0 1 239.9 0" stroke="#8f8778" stroke-opacity="0"/><path d="M-240.4 0A240.4 97.8 0 0 1 240.4 0" stroke="#8f8778" stroke-opacity="0"/><path d="M-240.8 0A240.8 97.9 0 0 1 240.8 0" stroke="#8f8778" stroke-opacity="0"/><path d="M-241.3 0A241.3 98.1 0 0 1 241.3 0" stroke="#8f8778" stroke-opacity="0"/><path d="M-241.7 0A241.7 98.3 0 0 1 241.7 0" stroke="#8f8778" stroke-opacity="0"/><path d="M-242.2 0A242.2 98.5 0 0 1 242.2 0" stroke="#8f8778" stroke-opacity="0"/><path d="M-242.6 0A242.6 98.7 0 0 1 242.6 0" stroke="#8f8778" stroke-opacity="0"/><path d="M-243.1 0A243.1 98.9 0 0 1 243.1 0" stroke="#8f8778" stroke-opacity="0"/><path d="M-243.6 0A243.6 99.1 0 0 1 243.6 0" stroke="#d2c4a6" stroke-opacity="0.4"/><path d="M-244 0A244 99.3 0 0 1 244 0" stroke="#e0d4b9" stroke-opacity="0.5"/><path d="M-244.5 0A244.5 99.4 0 0 1 244.5 0" stroke="#d9ccb0" stroke-opacity="0.4"/><path d="M-244.9 0A244.9 99.6 0 0 1 244.9 0" stroke="#d9ccb0" stroke-opacity="0.5"/><path d="M-245.4 0A245.4 99.8 0 0 1 245.4 0" stroke="#e0d4b9" stroke-opacity="0.4"/><path d="M-245.8 0A245.8 100 0 0 1 245.8 0" stroke="#d9ccb0" stroke-opacity="0.5"/><path d="M-246.3 0A246.3 100.2 0 0 1 246.3 0" stroke="#d9ccb0" stroke-opacity="0.5"/><path d="M-246.8 0A246.8 100.4 0 0 1 246.8 0" stroke="#d2c4a6" stroke-opacity="0.4"/><path d="M-247.2 0A247.2 100.6 0 0 1 247.2 0" stroke="#d9ccb0" stroke-opacity="0.4"/><path d="M-247.7 0A247.7 100.7 0 0 1 247.7 0" stroke="#d9ccb0" stroke-opacity="0.5"/><path d="M-248.1 0A248.1 100.9 0 0 1 248.1 0" stroke="#d2c4a6" stroke-opacity="0.5"/><path d="M-248.6 0A248.6 101.1 0 0 1 248.6 0" stroke="#d2c4a6" stroke-opacity="0.5"/><path d="M-249.1 0A249.1 101.3 0 0 1 249.1 0" stroke="#e0d4b9" stroke-opacity="0.5"/><path d="M-249.5 0A249.5 101.5 0 0 1 249.5 0" stroke="#d2c4a6" stroke-opacity="0.4"/><path d="M-250 0A250 101.7 0 0 1 250 0" stroke="#d9ccb0" stroke-opacity="0.5"/><path d="M-250.4 0A250.4 101.9 0 0 1 250.4 0" stroke="#d9ccb0" stroke-opacity="0.4"/><path d="M-250.9 0A250.9 102 0 0 1 250.9 0" stroke="#e0d4b9" stroke-opacity="0.4"/><path d="M-251.3 0A251.3 102.2 0 0 1 251.3 0" stroke="#d9ccb0" stroke-opacity="0.5"/><path d="M-251.8 0A251.8 102.4 0 0 1 251.8 0" stroke="#e0d4b9" stroke-opacity="0.5"/><path d="M-252.3 0A252.3 102.6 0 0 1 252.3 0" stroke="#e0d4b9" stroke-opacity="0.4"/><path d="M-252.7 0A252.7 102.8 0 0 1 252.7 0" stroke="#d9ccb0" stroke-opacity="0.5"/><path d="M-253.2 0A253.2 103 0 0 1 253.2 0" stroke="#e0d4b9" stroke-opacity="0.4"/><path d="M-253.6 0A253.6 103.2 0 0 1 253.6 0" stroke="#d9ccb0" stroke-opacity="0.5"/><path d="M-254.1 0A254.1 103.3 0 0 1 254.1 0" stroke="#d9ccb0" stroke-opacity="0.4"/><path d="M-254.5 0A254.5 103.5 0 0 1 254.5 0" stroke="#d9ccb0" stroke-opacity="0.5"/><path d="M-255 0A255 103.7 0 0 1 255 0" stroke="#d9ccb0" stroke-opacity="0.4"/><path d="M-255.5 0A255.5 103.9 0 0 1 255.5 0" stroke="#d9ccb0" stroke-opacity="0.4"/><path d="M-255.9 0A255.9 104.1 0 0 1 255.9 0" stroke="#e0d4b9" stroke-opacity="0.5"/><path d="M-256.4 0A256.4 104.3 0 0 1 256.4 0" stroke="#e0d4b9" stroke-opacity="0.5"/><path d="M-256.8 0A256.8 104.5 0 0 1 256.8 0" stroke="#e0d4b9" stroke-opacity="0.4"/><path d="M-257.3 0A257.3 104.7 0 0 1 257.3 0" stroke="#d9ccb0" stroke-opacity="0.4"/><path d="M-257.8 0A257.8 104.8 0 0 1 257.8 0" stroke="#e0d4b9" stroke-opacity="0.5"/><path d="M-258.2 0A258.2 105 0 0 1 258.2 0" stroke="#d2c4a6" stroke-opacity="0.4"/><path d="M-258.7 0A258.7 105.2 0 0 1 258.7 0" stroke="#d9ccb0" stroke-opacity="0.5"/><path d="M-259.1 0A259.1 105.4 0 0 1 259.1 0" stroke="#d9ccb0" stroke-opacity="0.4"/><path d="M-259.6 0A259.6 105.6 0 0 1 259.6 0" stroke="#e0d4b9" stroke-opacity="0.4"/><path d="M-260 0A260 105.8 0 0 1 260 0" stroke="#e0d4b9" stroke-opacity="0.4"/><path d="M-260.5 0A260.5 106 0 0 1 260.5 0" stroke="#d9ccb0" stroke-opacity="0.5"/><path d="M-261 0A261 106.1 0 0 1 261 0" stroke="#e0d4b9" stroke-opacity="0.4"/><path d="M-261.4 0A261.4 106.3 0 0 1 261.4 0" stroke="#e0d4b9" stroke-opacity="0.4"/><path d="M-261.9 0A261.9 106.5 0 0 1 261.9 0" stroke="#e0d4b9" stroke-opacity="0.4"/><path d="M-262.3 0A262.3 106.7 0 0 1 262.3 0" stroke="#d2c4a6" stroke-opacity="0.5"/><path d="M-262.8 0A262.8 106.9 0 0 1 262.8 0" stroke="#d9ccb0" stroke-opacity="0.4"/><path d="M-263.3 0A263.3 107.1 0 0 1 263.3 0" stroke="#d2c4a6" stroke-opacity="0.4"/><path d="M-263.7 0A263.7 107.3 0 0 1 263.7 0" stroke="#d9ccb0" stroke-opacity="0.5"/><path d="M-264.2 0A264.2 107.4 0 0 1 264.2 0" stroke="#d9ccb0" stroke-opacity="0.5"/><path d="M-264.6 0A264.6 107.6 0 0 1 264.6 0" stroke="#d2c4a6" stroke-opacity="0.4"/><path d="M-265.1 0A265.1 107.8 0 0 1 265.1 0" stroke="#d9ccb0" stroke-opacity="0.4"/><path d="M-265.5 0A265.5 108 0 0 1 265.5 0" stroke="#d2c4a6" stroke-opacity="0.5"/><path d="M-266.5 0A266.5 108.4 0 0 1 266.5 0" stroke="#d2c4a6" stroke-opacity="0.5"/><path d="M-266.9 0A266.9 108.6 0 0 1 266.9 0" stroke="#e0d4b9" stroke-opacity="0.5"/><path d="M-267.4 0A267.4 108.7 0 0 1 267.4 0" stroke="#d9ccb0" stroke-opacity="0.5"/><path d="M-267.8 0A267.8 108.9 0 0 1 267.8 0" stroke="#d2c4a6" stroke-opacity="0.4"/><path d="M-268.3 0A268.3 109.1 0 0 1 268.3 0" stroke="#d2c4a6" stroke-opacity="0.5"/><path d="M-268.7 0A268.7 109.3 0 0 1 268.7 0" stroke="#e0d4b9" stroke-opacity="0.4"/><path d="M-269.2 0A269.2 109.5 0 0 1 269.2 0" stroke="#d2c4a6" stroke-opacity="0.5"/><path d="M-269.7 0A269.7 109.7 0 0 1 269.7 0" stroke="#e0d4b9" stroke-opacity="0.5"/><path d="M-270.1 0A270.1 109.9 0 0 1 270.1 0" stroke="#e0d4b9" stroke-opacity="0.5"/><path d="M-270.6 0A270.6 110.1 0 0 1 270.6 0" stroke="#e0d4b9" stroke-opacity="0.5"/><path d="M-271 0A271 110.2 0 0 1 271 0" stroke="#d9ccb0" stroke-opacity="0.5"/><path d="M-271.5 0A271.5 110.4 0 0 1 271.5 0" stroke="#d2c4a6" stroke-opacity="0.5"/><path d="M-272 0A272 110.6 0 0 1 272 0" stroke="#d2c4a6" stroke-opacity="0.5"/><path d="M-278.8 0A278.8 113.4 0 0 1 278.8 0" stroke="#efe6d0" stroke-opacity="0.5"/><path d="M-279.3 0A279.3 113.6 0 0 1 279.3 0" stroke="#efe6d0" stroke-opacity="0.5"/></g><g clip-path="url(#pback)"><polygon points="18,-36 122,-6 330,-80 250,-150" fill="#04050b" opacity=".82"/></g><g clip-path="url(#pglobe)"><ellipse rx="120" ry="110.1" fill="#c7a874"/><path d="M-91.9 63.4A91.9 37.4 0 0 0 91.9 63.4L130 63.4L130 -120.1L-130 -120.1L-130 63.4Z" fill="#d3b782"/><path d="M-112.8 33.7A112.8 45.9 0 0 0 112.8 33.7L130 33.7L130 -120.1L-130 -120.1L-130 33.7Z" fill="#dcc290"/><path d="M-118.8 13.7A118.8 48.3 0 0 0 118.8 13.7L130 13.7L130 -120.1L-130 -120.1L-130 13.7Z" fill="#ecd9ab"/><path d="M-119.7 -6.9A119.7 48.7 0 0 0 119.7 -6.9L130 -6.9L130 -120.1L-130 -120.1L-130 -6.9Z" fill="#f3e3ba"/><path d="M-118.2 -17.1A118.2 48.1 0 0 0 118.2 -17.1L130 -17.1L130 -120.1L-130 -120.1L-130 -17.1Z" fill="#e2c792"/><path d="M-115.4 -27.2A115.4 46.9 0 0 0 115.4 -27.2L130 -27.2L130 -120.1L-130 -120.1L-130 -27.2Z" fill="#caa56f"/><path d="M-112 -35.4A112 45.6 0 0 0 112 -35.4L130 -35.4L130 -120.1L-130 -120.1L-130 -35.4Z" fill="#dcc08c"/><path d="M-106.9 -44.8A106.9 43.5 0 0 0 106.9 -44.8L130 -44.8L130 -120.1L-130 -120.1L-130 -44.8Z" fill="#e6d0a0"/><path d="M-99.5 -55.2A99.5 40.5 0 0 0 99.5 -55.2L130 -55.2L130 -120.1L-130 -120.1L-130 -55.2Z" fill="#cfb07c"/><path d="M-90.6 -64.7A90.6 36.8 0 0 0 90.6 -64.7L130 -64.7L130 -120.1L-130 -120.1L-130 -64.7Z" fill="#dcc497"/><path d="M-80.3 -73.3A80.3 32.7 0 0 0 80.3 -73.3L130 -73.3L130 -120.1L-130 -120.1L-130 -73.3Z" fill="#c9ae80"/><path d="M-68.8 -80.8A68.8 28 0 0 0 68.8 -80.8L130 -80.8L130 -120.1L-130 -120.1L-130 -80.8Z" fill="#bca887"/><path d="M-58.2 -86.3A58.2 23.7 0 0 0 58.2 -86.3L130 -86.3L130 -120.1L-130 -120.1L-130 -86.3Z" fill="#aaa28e"/><ellipse cy="-91.5" rx="45" ry="18.3" fill="#9aa0a0"/><ellipse cy="-94.8" rx="33.1" ry="13.5" fill="#8b95a1"/><path d="M-101.2 53A101.2 41.2 0 0 0 101.2 53" fill="none" stroke="#5a4526" stroke-opacity="0.1" stroke-width="1.5"/><path d="M-104.5 48.5A104.5 42.5 0 0 0 104.5 48.5" fill="none" stroke="#fff4d6" stroke-opacity="0.1" stroke-width="1.1"/><path d="M-107.6 43.6A107.6 43.8 0 0 0 107.6 43.6" fill="none" stroke="#5a4526" stroke-opacity="0.1" stroke-width="0.6"/><path d="M-110.4 38.7A110.4 44.9 0 0 0 110.4 38.7" fill="none" stroke="#fff4d6" stroke-opacity="0.1" stroke-width="1.2"/><path d="M-112.9 33.5A112.9 45.9 0 0 0 112.9 33.5" fill="none" stroke="#5a4526" stroke-opacity="0.1" stroke-width="1.2"/><path d="M-115.2 27.6A115.2 46.9 0 0 0 115.2 27.6" fill="none" stroke="#fff4d6" stroke-opacity="0.1" stroke-width="1.2"/><path d="M-116.7 23A116.7 47.5 0 0 0 116.7 23" fill="none" stroke="#5a4526" stroke-opacity="0.1" stroke-width="0.8"/><path d="M-118.1 17.6A118.1 48 0 0 0 118.1 17.6" fill="none" stroke="#fff4d6" stroke-opacity="0.1" stroke-width="1"/><path d="M-118.8 14.1A118.8 48.3 0 0 0 118.8 14.1" fill="none" stroke="#5a4526" stroke-opacity="0.2" stroke-width="1.1"/><path d="M-119.7 7.5A119.7 48.7 0 0 0 119.7 7.5" fill="none" stroke="#fff4d6" stroke-opacity="0.1" stroke-width="0.8"/><path d="M-119.9 3A119.9 48.8 0 0 0 119.9 3" fill="none" stroke="#5a4526" stroke-opacity="0.1" stroke-width="1.2"/><path d="M-120 -1.7A120 48.8 0 0 0 120 -1.7" fill="none" stroke="#fff4d6" stroke-opacity="0.1" stroke-width="0.6"/><path d="M-119.7 -6.7A119.7 48.7 0 0 0 119.7 -6.7" fill="none" stroke="#5a4526" stroke-opacity="0.1" stroke-width="0.7"/><path d="M-119.2 -11.4A119.2 48.5 0 0 0 119.2 -11.4" fill="none" stroke="#fff4d6" stroke-opacity="0.1" stroke-width="0.8"/><path d="M-118.3 -16.6A118.3 48.1 0 0 0 118.3 -16.6" fill="none" stroke="#5a4526" stroke-opacity="0.1" stroke-width="1.2"/><path d="M-116.7 -23.1A116.7 47.4 0 0 0 116.7 -23.1" fill="none" stroke="#fff4d6" stroke-opacity="0.1" stroke-width="1.3"/><path d="M-115.5 -26.6A115.5 47 0 0 0 115.5 -26.6" fill="none" stroke="#5a4526" stroke-opacity="0.1" stroke-width="1.3"/><path d="M-113 -33.1A113 46 0 0 0 113 -33.1" fill="none" stroke="#fff4d6" stroke-opacity="0.1" stroke-width="0.5"/><path d="M-111.8 -35.8A111.8 45.5 0 0 0 111.8 -35.8" fill="none" stroke="#5a4526" stroke-opacity="0.1" stroke-width="1.5"/><path d="M-109.2 -40.8A109.2 44.4 0 0 0 109.2 -40.8" fill="none" stroke="#fff4d6" stroke-opacity="0.1" stroke-width="1.2"/><path d="M-105.4 -47.2A105.4 42.9 0 0 0 105.4 -47.2" fill="none" stroke="#5a4526" stroke-opacity="0.2" stroke-width="0.6"/><path d="M-102.3 -51.5A102.3 41.6 0 0 0 102.3 -51.5" fill="none" stroke="#fff4d6" stroke-opacity="0.1" stroke-width="0.6"/><path d="M-99.7 -54.9A99.7 40.5 0 0 0 99.7 -54.9" fill="none" stroke="#5a4526" stroke-opacity="0.1" stroke-width="0.6"/><path d="M-96.3 -58.9A96.3 39.2 0 0 0 96.3 -58.9" fill="none" stroke="#fff4d6" stroke-opacity="0.1" stroke-width="0.6"/><path d="M-92.8 -62.6A92.8 37.7 0 0 0 92.8 -62.6" fill="none" stroke="#5a4526" stroke-opacity="0.1" stroke-width="0.7"/><path d="M-88.2 -66.9A88.2 35.9 0 0 0 88.2 -66.9" fill="none" stroke="#fff4d6" stroke-opacity="0.1" stroke-width="1.3"/><path d="M-83.1 -71.2A83.1 33.8 0 0 0 83.1 -71.2" fill="none" stroke="#5a4526" stroke-opacity="0.1" stroke-width="0.9"/><path d="M-78.4 -74.7A78.4 31.9 0 0 0 78.4 -74.7" fill="none" stroke="#fff4d6" stroke-opacity="0.1" stroke-width="0.7"/><path d="M-74.9 -77.1A74.9 30.5 0 0 0 74.9 -77.1" fill="none" stroke="#5a4526" stroke-opacity="0.1" stroke-width="0.7"/><path d="M-69.6 -80.4A69.6 28.3 0 0 0 69.6 -80.4" fill="none" stroke="#fff4d6" stroke-opacity="0.1" stroke-width="1.1"/><path d="M-63.2 -83.9A63.2 25.7 0 0 0 63.2 -83.9" fill="none" stroke="#5a4526" stroke-opacity="0.1" stroke-width="1.2"/><path d="M-59.1 -85.9A59.1 24 0 0 0 59.1 -85.9" fill="none" stroke="#fff4d6" stroke-opacity="0.2" stroke-width="1.3"/><path d="M-52.9 -88.6A52.9 21.5 0 0 0 52.9 -88.6" fill="none" stroke="#5a4526" stroke-opacity="0.1" stroke-width="1.1"/><ellipse cx="-48" cy="-33.5" rx="6" ry="2.2" fill="#f8eed4" opacity=".55"/><ellipse cx="29.2" cy="-24.2" rx="4.2" ry="1.5" fill="#f8eed4" opacity=".55"/><ellipse cx="-89.9" cy="51.2" rx="4.8" ry="1.8" fill="#f8eed4" opacity=".55"/><polygon points="26.6,-94.2 9.2,-85.8 -17.4,-87.7 -26.6,-98 -9.2,-106.5 17.4,-104.5" fill="#76808c" fill-opacity=".55" stroke="#56606d" stroke-width="1.1"/><ellipse cy="-98.4" rx="11.4" ry="4.6" fill="#4d5561" opacity=".8"/><path d="M-148.2 -18A148.2 60.3 0 0 0 148.2 -18L117 -26A117 47.6 0 0 1 -117 -26Z" fill="#20170c" opacity=".5"/><ellipse rx="120" ry="110.1" fill="url(#plimb)"/><ellipse rx="120" ry="110.1" fill="url(#pterm)"/><ellipse rx="119.4" ry="109.5" fill="none" stroke="#fff3d6" stroke-opacity=".18" stroke-width="1.2"/></g><g fill="none" stroke-width=".62"><path d="M-133.2 0A133.2 54.2 0 0 0 133.2 0" stroke="#8d8578" stroke-opacity="0.1"/><path d="M-133.7 0A133.7 54.4 0 0 0 133.7 0" stroke="#8d8578" stroke-opacity="0.1"/><path d="M-134.1 0A134.1 54.5 0 0 0 134.1 0" stroke="#8d8578" stroke-opacity="0.1"/><path d="M-134.6 0A134.6 54.7 0 0 0 134.6 0" stroke="#8d8578" stroke-opacity="0.1"/><path d="M-135 0A135 54.9 0 0 0 135 0" stroke="#8d8578" stroke-opacity="0.1"/><path d="M-135.5 0A135.5 55.1 0 0 0 135.5 0" stroke="#8d8578" stroke-opacity="0.1"/><path d="M-135.9 0A135.9 55.3 0 0 0 135.9 0" stroke="#8d8578" stroke-opacity="0.1"/><path d="M-136.4 0A136.4 55.5 0 0 0 136.4 0" stroke="#8d8578" stroke-opacity="0.1"/><path d="M-136.9 0A136.9 55.7 0 0 0 136.9 0" stroke="#8d8578" stroke-opacity="0.1"/><path d="M-137.3 0A137.3 55.9 0 0 0 137.3 0" stroke="#8d8578" stroke-opacity="0.1"/><path d="M-137.8 0A137.8 56 0 0 0 137.8 0" stroke="#8d8578" stroke-opacity="0.1"/><path d="M-138.2 0A138.2 56.2 0 0 0 138.2 0" stroke="#8d8578" stroke-opacity="0.1"/><path d="M-138.7 0A138.7 56.4 0 0 0 138.7 0" stroke="#8d8578" stroke-opacity="0.1"/><path d="M-139.2 0A139.2 56.6 0 0 0 139.2 0" stroke="#8d8578" stroke-opacity="0.1"/><path d="M-139.6 0A139.6 56.8 0 0 0 139.6 0" stroke="#8d8578" stroke-opacity="0.1"/><path d="M-140.1 0A140.1 57 0 0 0 140.1 0" stroke="#8d8578" stroke-opacity="0.1"/><path d="M-140.5 0A140.5 57.2 0 0 0 140.5 0" stroke="#8d8578" stroke-opacity="0.1"/><path d="M-141 0A141 57.3 0 0 0 141 0" stroke="#8d8578" stroke-opacity="0.1"/><path d="M-141.4 0A141.4 57.5 0 0 0 141.4 0" stroke="#8d8578" stroke-opacity="0.1"/><path d="M-141.9 0A141.9 57.7 0 0 0 141.9 0" stroke="#8d8578" stroke-opacity="0.1"/><path d="M-142.4 0A142.4 57.9 0 0 0 142.4 0" stroke="#8d8578" stroke-opacity="0.1"/><path d="M-142.8 0A142.8 58.1 0 0 0 142.8 0" stroke="#8d8578" stroke-opacity="0.1"/><path d="M-143.3 0A143.3 58.3 0 0 0 143.3 0" stroke="#8d8578" stroke-opacity="0.1"/><path d="M-143.7 0A143.7 58.5 0 0 0 143.7 0" stroke="#8d8578" stroke-opacity="0.1"/><path d="M-144.2 0A144.2 58.6 0 0 0 144.2 0" stroke="#8d8578" stroke-opacity="0.1"/><path d="M-144.6 0A144.6 58.8 0 0 0 144.6 0" stroke="#8d8578" stroke-opacity="0.1"/><path d="M-145.1 0A145.1 59 0 0 0 145.1 0" stroke="#8d8578" stroke-opacity="0.1"/><path d="M-145.6 0A145.6 59.2 0 0 0 145.6 0" stroke="#8d8578" stroke-opacity="0.1"/><path d="M-146 0A146 59.4 0 0 0 146 0" stroke="#8d8578" stroke-opacity="0.1"/><path d="M-146.5 0A146.5 59.6 0 0 0 146.5 0" stroke="#8d8578" stroke-opacity="0.1"/><path d="M-146.9 0A146.9 59.8 0 0 0 146.9 0" stroke="#8d8578" stroke-opacity="0.1"/><path d="M-147.4 0A147.4 60 0 0 0 147.4 0" stroke="#8d8578" stroke-opacity="0.1"/><path d="M-147.9 0A147.9 60.1 0 0 0 147.9 0" stroke="#8d8578" stroke-opacity="0.1"/><path d="M-148.3 0A148.3 60.3 0 0 0 148.3 0" stroke="#8d8578" stroke-opacity="0.1"/><path d="M-148.8 0A148.8 60.5 0 0 0 148.8 0" stroke="#a1978a" stroke-opacity="0.1"/><path d="M-149.2 0A149.2 60.7 0 0 0 149.2 0" stroke="#a1978a" stroke-opacity="0.2"/><path d="M-149.7 0A149.7 60.9 0 0 0 149.7 0" stroke="#a1978a" stroke-opacity="0.1"/><path d="M-150.1 0A150.1 61.1 0 0 0 150.1 0" stroke="#a1978a" stroke-opacity="0.2"/><path d="M-150.6 0A150.6 61.3 0 0 0 150.6 0" stroke="#a1978a" stroke-opacity="0.2"/><path d="M-151.1 0A151.1 61.4 0 0 0 151.1 0" stroke="#a1978a" stroke-opacity="0.2"/><path d="M-151.5 0A151.5 61.6 0 0 0 151.5 0" stroke="#a1978a" stroke-opacity="0.2"/><path d="M-152 0A152 61.8 0 0 0 152 0" stroke="#a1978a" stroke-opacity="0.2"/><path d="M-152.4 0A152.4 62 0 0 0 152.4 0" stroke="#a1978a" stroke-opacity="0.2"/><path d="M-152.9 0A152.9 62.2 0 0 0 152.9 0" stroke="#a1978a" stroke-opacity="0.2"/><path d="M-153.3 0A153.3 62.4 0 0 0 153.3 0" stroke="#a1978a" stroke-opacity="0.1"/><path d="M-153.8 0A153.8 62.6 0 0 0 153.8 0" stroke="#a1978a" stroke-opacity="0.1"/><path d="M-154.3 0A154.3 62.7 0 0 0 154.3 0" stroke="#a1978a" stroke-opacity="0.2"/><path d="M-154.7 0A154.7 62.9 0 0 0 154.7 0" stroke="#a1978a" stroke-opacity="0.1"/><path d="M-155.2 0A155.2 63.1 0 0 0 155.2 0" stroke="#a1978a" stroke-opacity="0.2"/><path d="M-155.6 0A155.6 63.3 0 0 0 155.6 0" stroke="#a1978a" stroke-opacity="0.1"/><path d="M-156.1 0A156.1 63.5 0 0 0 156.1 0" stroke="#a1978a" stroke-opacity="0.2"/><path d="M-156.6 0A156.6 63.7 0 0 0 156.6 0" stroke="#a1978a" stroke-opacity="0.2"/><path d="M-157 0A157 63.9 0 0 0 157 0" stroke="#a1978a" stroke-opacity="0.1"/><path d="M-157.5 0A157.5 64 0 0 0 157.5 0" stroke="#a1978a" stroke-opacity="0.2"/><path d="M-157.9 0A157.9 64.2 0 0 0 157.9 0" stroke="#a1978a" stroke-opacity="0.1"/><path d="M-158.4 0A158.4 64.4 0 0 0 158.4 0" stroke="#a1978a" stroke-opacity="0.1"/><path d="M-158.8 0A158.8 64.6 0 0 0 158.8 0" stroke="#a1978a" stroke-opacity="0.2"/><path d="M-159.3 0A159.3 64.8 0 0 0 159.3 0" stroke="#a1978a" stroke-opacity="0.1"/><path d="M-159.8 0A159.8 65 0 0 0 159.8 0" stroke="#a1978a" stroke-opacity="0.1"/><path d="M-160.2 0A160.2 65.2 0 0 0 160.2 0" stroke="#a1978a" stroke-opacity="0.2"/><path d="M-160.7 0A160.7 65.4 0 0 0 160.7 0" stroke="#a1978a" stroke-opacity="0.2"/><path d="M-161.1 0A161.1 65.5 0 0 0 161.1 0" stroke="#a1978a" stroke-opacity="0.1"/><path d="M-161.6 0A161.6 65.7 0 0 0 161.6 0" stroke="#a1978a" stroke-opacity="0.2"/><path d="M-162 0A162 65.9 0 0 0 162 0" stroke="#a1978a" stroke-opacity="0.1"/><path d="M-162.5 0A162.5 66.1 0 0 0 162.5 0" stroke="#a1978a" stroke-opacity="0.1"/><path d="M-163 0A163 66.3 0 0 0 163 0" stroke="#a1978a" stroke-opacity="0.2"/><path d="M-163.4 0A163.4 66.5 0 0 0 163.4 0" stroke="#a1978a" stroke-opacity="0.2"/><path d="M-163.9 0A163.9 66.7 0 0 0 163.9 0" stroke="#a1978a" stroke-opacity="0.1"/><path d="M-164.3 0A164.3 66.8 0 0 0 164.3 0" stroke="#a1978a" stroke-opacity="0.1"/><path d="M-164.8 0A164.8 67 0 0 0 164.8 0" stroke="#a1978a" stroke-opacity="0.1"/><path d="M-165.3 0A165.3 67.2 0 0 0 165.3 0" stroke="#a1978a" stroke-opacity="0.1"/><path d="M-165.7 0A165.7 67.4 0 0 0 165.7 0" stroke="#a1978a" stroke-opacity="0.2"/><path d="M-166.2 0A166.2 67.6 0 0 0 166.2 0" stroke="#a1978a" stroke-opacity="0.1"/><path d="M-166.6 0A166.6 67.8 0 0 0 166.6 0" stroke="#a1978a" stroke-opacity="0.2"/><path d="M-167.1 0A167.1 68 0 0 0 167.1 0" stroke="#a1978a" stroke-opacity="0.2"/><path d="M-167.5 0A167.5 68.1 0 0 0 167.5 0" stroke="#a1978a" stroke-opacity="0.1"/><path d="M-168 0A168 68.3 0 0 0 168 0" stroke="#a1978a" stroke-opacity="0.2"/><path d="M-168.5 0A168.5 68.5 0 0 0 168.5 0" stroke="#a1978a" stroke-opacity="0.1"/><path d="M-168.9 0A168.9 68.7 0 0 0 168.9 0" stroke="#a1978a" stroke-opacity="0.2"/><path d="M-169.4 0A169.4 68.9 0 0 0 169.4 0" stroke="#a1978a" stroke-opacity="0.2"/><path d="M-169.8 0A169.8 69.1 0 0 0 169.8 0" stroke="#a1978a" stroke-opacity="0.2"/><path d="M-170.3 0A170.3 69.3 0 0 0 170.3 0" stroke="#a1978a" stroke-opacity="0.2"/><path d="M-170.7 0A170.7 69.4 0 0 0 170.7 0" stroke="#a1978a" stroke-opacity="0.2"/><path d="M-171.2 0A171.2 69.6 0 0 0 171.2 0" stroke="#a1978a" stroke-opacity="0.2"/><path d="M-171.7 0A171.7 69.8 0 0 0 171.7 0" stroke="#a1978a" stroke-opacity="0.2"/><path d="M-172.1 0A172.1 70 0 0 0 172.1 0" stroke="#a1978a" stroke-opacity="0.2"/><path d="M-172.6 0A172.6 70.2 0 0 0 172.6 0" stroke="#a1978a" stroke-opacity="0.2"/><path d="M-173 0A173 70.4 0 0 0 173 0" stroke="#a1978a" stroke-opacity="0.2"/><path d="M-173.5 0A173.5 70.6 0 0 0 173.5 0" stroke="#a1978a" stroke-opacity="0.1"/><path d="M-174 0A174 70.8 0 0 0 174 0" stroke="#a1978a" stroke-opacity="0.1"/><path d="M-174.4 0A174.4 70.9 0 0 0 174.4 0" stroke="#a1978a" stroke-opacity="0.2"/><path d="M-174.9 0A174.9 71.1 0 0 0 174.9 0" stroke="#a1978a" stroke-opacity="0.1"/><path d="M-175.3 0A175.3 71.3 0 0 0 175.3 0" stroke="#a1978a" stroke-opacity="0.2"/><path d="M-175.8 0A175.8 71.5 0 0 0 175.8 0" stroke="#a1978a" stroke-opacity="0.2"/><path d="M-176.2 0A176.2 71.7 0 0 0 176.2 0" stroke="#a1978a" stroke-opacity="0.1"/><path d="M-176.7 0A176.7 71.9 0 0 0 176.7 0" stroke="#a1978a" stroke-opacity="0.1"/><path d="M-177.2 0A177.2 72.1 0 0 0 177.2 0" stroke="#a1978a" stroke-opacity="0.1"/><path d="M-177.6 0A177.6 72.2 0 0 0 177.6 0" stroke="#a1978a" stroke-opacity="0.2"/><path d="M-178.1 0A178.1 72.4 0 0 0 178.1 0" stroke="#a1978a" stroke-opacity="0.1"/><path d="M-178.5 0A178.5 72.6 0 0 0 178.5 0" stroke="#a1978a" stroke-opacity="0.1"/><path d="M-179 0A179 72.8 0 0 0 179 0" stroke="#a1978a" stroke-opacity="0.2"/><path d="M-179.4 0A179.4 73 0 0 0 179.4 0" stroke="#a1978a" stroke-opacity="0.2"/><path d="M-179.9 0A179.9 73.2 0 0 0 179.9 0" stroke="#a1978a" stroke-opacity="0.1"/><path d="M-180.4 0A180.4 73.4 0 0 0 180.4 0" stroke="#a1978a" stroke-opacity="0.1"/><path d="M-180.8 0A180.8 73.5 0 0 0 180.8 0" stroke="#a1978a" stroke-opacity="0.2"/><path d="M-181.3 0A181.3 73.7 0 0 0 181.3 0" stroke="#a1978a" stroke-opacity="0.2"/><path d="M-181.7 0A181.7 73.9 0 0 0 181.7 0" stroke="#a1978a" stroke-opacity="0.1"/><path d="M-182.2 0A182.2 74.1 0 0 0 182.2 0" stroke="#a1978a" stroke-opacity="0.2"/><path d="M-182.7 0A182.7 74.3 0 0 0 182.7 0" stroke="#a1978a" stroke-opacity="0.2"/><path d="M-183.1 0A183.1 74.5 0 0 0 183.1 0" stroke="#a1978a" stroke-opacity="0.1"/><path d="M-183.6 0A183.6 74.7 0 0 0 183.6 0" stroke="#f3e8cf" stroke-opacity="0.5"/><path d="M-184 0A184 74.9 0 0 0 184 0" stroke="#dccca9" stroke-opacity="0.6"/><path d="M-184.5 0A184.5 75 0 0 0 184.5 0" stroke="#e6d8b8" stroke-opacity="0.5"/><path d="M-184.9 0A184.9 75.2 0 0 0 184.9 0" stroke="#dccca9" stroke-opacity="0.6"/><path d="M-185.4 0A185.4 75.4 0 0 0 185.4 0" stroke="#f3e8cf" stroke-opacity="0.6"/><path d="M-185.9 0A185.9 75.6 0 0 0 185.9 0" stroke="#dccca9" stroke-opacity="0.5"/><path d="M-186.3 0A186.3 75.8 0 0 0 186.3 0" stroke="#e6d8b8" stroke-opacity="0.7"/><path d="M-186.8 0A186.8 76 0 0 0 186.8 0" stroke="#f3e8cf" stroke-opacity="0.7"/><path d="M-187.2 0A187.2 76.2 0 0 0 187.2 0" stroke="#dccca9" stroke-opacity="0.6"/><path d="M-187.7 0A187.7 76.3 0 0 0 187.7 0" stroke="#e6d8b8" stroke-opacity="0.7"/><path d="M-188.1 0A188.1 76.5 0 0 0 188.1 0" stroke="#eee3c8" stroke-opacity="0.4"/><path d="M-188.6 0A188.6 76.7 0 0 0 188.6 0" stroke="#f3e8cf" stroke-opacity="0.6"/><path d="M-189.1 0A189.1 76.9 0 0 0 189.1 0" stroke="#dccca9" stroke-opacity="0.5"/><path d="M-189.5 0A189.5 77.1 0 0 0 189.5 0" stroke="#eee3c8" stroke-opacity="0.7"/><path d="M-190 0A190 77.3 0 0 0 190 0" stroke="#e6d8b8" stroke-opacity="0.7"/><path d="M-190.4 0A190.4 77.5 0 0 0 190.4 0" stroke="#eee3c8" stroke-opacity="0.7"/><path d="M-190.9 0A190.9 77.6 0 0 0 190.9 0" stroke="#dccca9" stroke-opacity="0.6"/><path d="M-191.4 0A191.4 77.8 0 0 0 191.4 0" stroke="#e6d8b8" stroke-opacity="0.5"/><path d="M-191.8 0A191.8 78 0 0 0 191.8 0" stroke="#f3e8cf" stroke-opacity="0.5"/><path d="M-192.3 0A192.3 78.2 0 0 0 192.3 0" stroke="#e6d8b8" stroke-opacity="0.7"/><path d="M-192.7 0A192.7 78.4 0 0 0 192.7 0" stroke="#e6d8b8" stroke-opacity="0.6"/><path d="M-193.2 0A193.2 78.6 0 0 0 193.2 0" stroke="#eee3c8" stroke-opacity="0.5"/><path d="M-193.6 0A193.6 78.8 0 0 0 193.6 0" stroke="#eee3c8" stroke-opacity="0.6"/><path d="M-194.1 0A194.1 78.9 0 0 0 194.1 0" stroke="#dccca9" stroke-opacity="0.6"/><path d="M-194.6 0A194.6 79.1 0 0 0 194.6 0" stroke="#eee3c8" stroke-opacity="0.7"/><path d="M-195 0A195 79.3 0 0 0 195 0" stroke="#e6d8b8" stroke-opacity="0.6"/><path d="M-195.5 0A195.5 79.5 0 0 0 195.5 0" stroke="#eee3c8" stroke-opacity="0.6"/><path d="M-195.9 0A195.9 79.7 0 0 0 195.9 0" stroke="#f3e8cf" stroke-opacity="0.5"/><path d="M-196.4 0A196.4 79.9 0 0 0 196.4 0" stroke="#dccca9" stroke-opacity="0.7"/><path d="M-196.9 0A196.9 80.1 0 0 0 196.9 0" stroke="#eee3c8" stroke-opacity="0.6"/><path d="M-197.3 0A197.3 80.3 0 0 0 197.3 0" stroke="#e6d8b8" stroke-opacity="0.7"/><path d="M-197.8 0A197.8 80.4 0 0 0 197.8 0" stroke="#e6d8b8" stroke-opacity="0.7"/><path d="M-198.2 0A198.2 80.6 0 0 0 198.2 0" stroke="#dccca9" stroke-opacity="0.7"/><path d="M-198.7 0A198.7 80.8 0 0 0 198.7 0" stroke="#dccca9" stroke-opacity="0.6"/><path d="M-199.1 0A199.1 81 0 0 0 199.1 0" stroke="#f3e8cf" stroke-opacity="0.6"/><path d="M-199.6 0A199.6 81.2 0 0 0 199.6 0" stroke="#eee3c8" stroke-opacity="0.6"/><path d="M-200.1 0A200.1 81.4 0 0 0 200.1 0" stroke="#f3e8cf" stroke-opacity="0.7"/><path d="M-200.5 0A200.5 81.6 0 0 0 200.5 0" stroke="#f3e8cf" stroke-opacity="0.8"/><path d="M-201 0A201 81.7 0 0 0 201 0" stroke="#eee3c8" stroke-opacity="0.6"/><path d="M-201.4 0A201.4 81.9 0 0 0 201.4 0" stroke="#f3e8cf" stroke-opacity="0.6"/><path d="M-201.9 0A201.9 82.1 0 0 0 201.9 0" stroke="#dccca9" stroke-opacity="0.6"/><path d="M-202.3 0A202.3 82.3 0 0 0 202.3 0" stroke="#f3e8cf" stroke-opacity="0.6"/><path d="M-202.8 0A202.8 82.5 0 0 0 202.8 0" stroke="#eee3c8" stroke-opacity="0.6"/><path d="M-203.3 0A203.3 82.7 0 0 0 203.3 0" stroke="#e6d8b8" stroke-opacity="0.6"/><path d="M-203.7 0A203.7 82.9 0 0 0 203.7 0" stroke="#eee3c8" stroke-opacity="0.7"/><path d="M-204.2 0A204.2 83 0 0 0 204.2 0" stroke="#f3e8cf" stroke-opacity="0.7"/><path d="M-204.6 0A204.6 83.2 0 0 0 204.6 0" stroke="#eee3c8" stroke-opacity="0.6"/><path d="M-205.1 0A205.1 83.4 0 0 0 205.1 0" stroke="#e6d8b8" stroke-opacity="0.8"/><path d="M-205.6 0A205.6 83.6 0 0 0 205.6 0" stroke="#f3e8cf" stroke-opacity="0.7"/><path d="M-206 0A206 83.8 0 0 0 206 0" stroke="#e6d8b8" stroke-opacity="0.8"/><path d="M-206.5 0A206.5 84 0 0 0 206.5 0" stroke="#eee3c8" stroke-opacity="0.7"/><path d="M-206.9 0A206.9 84.2 0 0 0 206.9 0" stroke="#e6d8b8" stroke-opacity="0.7"/><path d="M-207.4 0A207.4 84.4 0 0 0 207.4 0" stroke="#dccca9" stroke-opacity="0.7"/><path d="M-207.8 0A207.8 84.5 0 0 0 207.8 0" stroke="#e6d8b8" stroke-opacity="0.7"/><path d="M-208.3 0A208.3 84.7 0 0 0 208.3 0" stroke="#eee3c8" stroke-opacity="0.6"/><path d="M-208.8 0A208.8 84.9 0 0 0 208.8 0" stroke="#e6d8b8" stroke-opacity="0.6"/><path d="M-209.2 0A209.2 85.1 0 0 0 209.2 0" stroke="#e6d8b8" stroke-opacity="0.6"/><path d="M-209.7 0A209.7 85.3 0 0 0 209.7 0" stroke="#dccca9" stroke-opacity="0.7"/><path d="M-210.1 0A210.1 85.5 0 0 0 210.1 0" stroke="#e6d8b8" stroke-opacity="0.8"/><path d="M-210.6 0A210.6 85.7 0 0 0 210.6 0" stroke="#e6d8b8" stroke-opacity="0.8"/><path d="M-211 0A211 85.8 0 0 0 211 0" stroke="#e6d8b8" stroke-opacity="0.7"/><path d="M-211.5 0A211.5 86 0 0 0 211.5 0" stroke="#e6d8b8" stroke-opacity="0.8"/><path d="M-212 0A212 86.2 0 0 0 212 0" stroke="#eee3c8" stroke-opacity="0.7"/><path d="M-212.4 0A212.4 86.4 0 0 0 212.4 0" stroke="#dccca9" stroke-opacity="0.8"/><path d="M-212.9 0A212.9 86.6 0 0 0 212.9 0" stroke="#f3e8cf" stroke-opacity="0.7"/><path d="M-213.3 0A213.3 86.8 0 0 0 213.3 0" stroke="#dccca9" stroke-opacity="0.8"/><path d="M-213.8 0A213.8 87 0 0 0 213.8 0" stroke="#e6d8b8" stroke-opacity="0.6"/><path d="M-214.3 0A214.3 87.1 0 0 0 214.3 0" stroke="#f3e8cf" stroke-opacity="0.8"/><path d="M-214.7 0A214.7 87.3 0 0 0 214.7 0" stroke="#e6d8b8" stroke-opacity="0.7"/><path d="M-215.2 0A215.2 87.5 0 0 0 215.2 0" stroke="#e6d8b8" stroke-opacity="0.9"/><path d="M-215.6 0A215.6 87.7 0 0 0 215.6 0" stroke="#e6d8b8" stroke-opacity="0.8"/><path d="M-216.1 0A216.1 87.9 0 0 0 216.1 0" stroke="#eee3c8" stroke-opacity="0.7"/><path d="M-216.5 0A216.5 88.1 0 0 0 216.5 0" stroke="#dccca9" stroke-opacity="0.7"/><path d="M-217 0A217 88.3 0 0 0 217 0" stroke="#eee3c8" stroke-opacity="0.8"/><path d="M-217.5 0A217.5 88.4 0 0 0 217.5 0" stroke="#eee3c8" stroke-opacity="0.8"/><path d="M-217.9 0A217.9 88.6 0 0 0 217.9 0" stroke="#eee3c8" stroke-opacity="0.8"/><path d="M-218.4 0A218.4 88.8 0 0 0 218.4 0" stroke="#e6d8b8" stroke-opacity="0.7"/><path d="M-218.8 0A218.8 89 0 0 0 218.8 0" stroke="#e6d8b8" stroke-opacity="0.9"/><path d="M-219.3 0A219.3 89.2 0 0 0 219.3 0" stroke="#f3e8cf" stroke-opacity="0.9"/><path d="M-219.7 0A219.7 89.4 0 0 0 219.7 0" stroke="#eee3c8" stroke-opacity="0.7"/><path d="M-220.2 0A220.2 89.6 0 0 0 220.2 0" stroke="#eee3c8" stroke-opacity="0.9"/><path d="M-220.7 0A220.7 89.8 0 0 0 220.7 0" stroke="#dccca9" stroke-opacity="0.7"/><path d="M-221.1 0A221.1 89.9 0 0 0 221.1 0" stroke="#eee3c8" stroke-opacity="0.7"/><path d="M-221.6 0A221.6 90.1 0 0 0 221.6 0" stroke="#e6d8b8" stroke-opacity="0.9"/><path d="M-222 0A222 90.3 0 0 0 222 0" stroke="#eee3c8" stroke-opacity="0.7"/><path d="M-222.5 0A222.5 90.5 0 0 0 222.5 0" stroke="#dccca9" stroke-opacity="0.9"/><path d="M-223 0A223 90.7 0 0 0 223 0" stroke="#f3e8cf" stroke-opacity="0.9"/><path d="M-223.4 0A223.4 90.9 0 0 0 223.4 0" stroke="#e6d8b8" stroke-opacity="0.8"/><path d="M-223.9 0A223.9 91.1 0 0 0 223.9 0" stroke="#e6d8b8" stroke-opacity="0.8"/><path d="M-224.3 0A224.3 91.2 0 0 0 224.3 0" stroke="#eee3c8" stroke-opacity="0.8"/><path d="M-224.8 0A224.8 91.4 0 0 0 224.8 0" stroke="#f3e8cf" stroke-opacity="0.8"/><path d="M-225.2 0A225.2 91.6 0 0 0 225.2 0" stroke="#eee3c8" stroke-opacity="0.9"/><path d="M-225.7 0A225.7 91.8 0 0 0 225.7 0" stroke="#eee3c8" stroke-opacity="0.9"/><path d="M-226.2 0A226.2 92 0 0 0 226.2 0" stroke="#eee3c8" stroke-opacity="0.8"/><path d="M-226.6 0A226.6 92.2 0 0 0 226.6 0" stroke="#eee3c8" stroke-opacity="0.8"/><path d="M-227.1 0A227.1 92.4 0 0 0 227.1 0" stroke="#f3e8cf" stroke-opacity="0.8"/><path d="M-227.5 0A227.5 92.5 0 0 0 227.5 0" stroke="#eee3c8" stroke-opacity="0.8"/><path d="M-228 0A228 92.7 0 0 0 228 0" stroke="#eee3c8" stroke-opacity="0.8"/><path d="M-228.4 0A228.4 92.9 0 0 0 228.4 0" stroke="#eee3c8" stroke-opacity="0.7"/><path d="M-228.9 0A228.9 93.1 0 0 0 228.9 0" stroke="#dccca9" stroke-opacity="0.9"/><path d="M-229.4 0A229.4 93.3 0 0 0 229.4 0" stroke="#eee3c8" stroke-opacity="0.9"/><path d="M-229.8 0A229.8 93.5 0 0 0 229.8 0" stroke="#f3e8cf" stroke-opacity="0.9"/><path d="M-230.3 0A230.3 93.7 0 0 0 230.3 0" stroke="#e6d8b8" stroke-opacity="0.8"/><path d="M-230.7 0A230.7 93.8 0 0 0 230.7 0" stroke="#e6d8b8" stroke-opacity="0.9"/><path d="M-231.2 0A231.2 94 0 0 0 231.2 0" stroke="#dccca9" stroke-opacity="0.8"/><path d="M-231.7 0A231.7 94.2 0 0 0 231.7 0" stroke="#dccca9" stroke-opacity="0.9"/><path d="M-232.1 0A232.1 94.4 0 0 0 232.1 0" stroke="#dccca9" stroke-opacity="0.9"/><path d="M-232.6 0A232.6 94.6 0 0 0 232.6 0" stroke="#f3e8cf" stroke-opacity="0.9"/><path d="M-233 0A233 94.8 0 0 0 233 0" stroke="#eee3c8" stroke-opacity="0.8"/><path d="M-233.5 0A233.5 95 0 0 0 233.5 0" stroke="#dccca9" stroke-opacity="0.8"/><path d="M-233.9 0A233.9 95.2 0 0 0 233.9 0" stroke="#e6d8b8" stroke-opacity="0.8"/><path d="M-234.4 0A234.4 95.3 0 0 0 234.4 0" stroke="#8f8778" stroke-opacity="0"/><path d="M-234.9 0A234.9 95.5 0 0 0 234.9 0" stroke="#8f8778" stroke-opacity="0"/><path d="M-235.3 0A235.3 95.7 0 0 0 235.3 0" stroke="#8f8778" stroke-opacity="0"/><path d="M-235.8 0A235.8 95.9 0 0 0 235.8 0" stroke="#8f8778" stroke-opacity="0"/><path d="M-236.2 0A236.2 96.1 0 0 0 236.2 0" stroke="#8f8778" stroke-opacity="0"/><path d="M-236.7 0A236.7 96.3 0 0 0 236.7 0" stroke="#8f8778" stroke-opacity="0"/><path d="M-237.1 0A237.1 96.5 0 0 0 237.1 0" stroke="#8f8778" stroke-opacity="0"/><path d="M-237.6 0A237.6 96.6 0 0 0 237.6 0" stroke="#8f8778" stroke-opacity="0"/><path d="M-238.1 0A238.1 96.8 0 0 0 238.1 0" stroke="#8f8778" stroke-opacity="0"/><path d="M-238.5 0A238.5 97 0 0 0 238.5 0" stroke="#8f8778" stroke-opacity="0.2"/><path d="M-239 0A239 97.2 0 0 0 239 0" stroke="#8f8778" stroke-opacity="0.2"/><path d="M-239.4 0A239.4 97.4 0 0 0 239.4 0" stroke="#8f8778" stroke-opacity="0.2"/><path d="M-239.9 0A239.9 97.6 0 0 0 239.9 0" stroke="#8f8778" stroke-opacity="0"/><path d="M-240.4 0A240.4 97.8 0 0 0 240.4 0" stroke="#8f8778" stroke-opacity="0"/><path d="M-240.8 0A240.8 97.9 0 0 0 240.8 0" stroke="#8f8778" stroke-opacity="0"/><path d="M-241.3 0A241.3 98.1 0 0 0 241.3 0" stroke="#8f8778" stroke-opacity="0"/><path d="M-241.7 0A241.7 98.3 0 0 0 241.7 0" stroke="#8f8778" stroke-opacity="0"/><path d="M-242.2 0A242.2 98.5 0 0 0 242.2 0" stroke="#8f8778" stroke-opacity="0"/><path d="M-242.6 0A242.6 98.7 0 0 0 242.6 0" stroke="#8f8778" stroke-opacity="0"/><path d="M-243.1 0A243.1 98.9 0 0 0 243.1 0" stroke="#8f8778" stroke-opacity="0"/><path d="M-243.6 0A243.6 99.1 0 0 0 243.6 0" stroke="#d2c4a6" stroke-opacity="0.4"/><path d="M-244 0A244 99.3 0 0 0 244 0" stroke="#e0d4b9" stroke-opacity="0.5"/><path d="M-244.5 0A244.5 99.4 0 0 0 244.5 0" stroke="#d9ccb0" stroke-opacity="0.5"/><path d="M-244.9 0A244.9 99.6 0 0 0 244.9 0" stroke="#d9ccb0" stroke-opacity="0.6"/><path d="M-245.4 0A245.4 99.8 0 0 0 245.4 0" stroke="#e0d4b9" stroke-opacity="0.4"/><path d="M-245.8 0A245.8 100 0 0 0 245.8 0" stroke="#d9ccb0" stroke-opacity="0.5"/><path d="M-246.3 0A246.3 100.2 0 0 0 246.3 0" stroke="#d9ccb0" stroke-opacity="0.6"/><path d="M-246.8 0A246.8 100.4 0 0 0 246.8 0" stroke="#d2c4a6" stroke-opacity="0.4"/><path d="M-247.2 0A247.2 100.6 0 0 0 247.2 0" stroke="#d9ccb0" stroke-opacity="0.4"/><path d="M-247.7 0A247.7 100.7 0 0 0 247.7 0" stroke="#d9ccb0" stroke-opacity="0.5"/><path d="M-248.1 0A248.1 100.9 0 0 0 248.1 0" stroke="#d2c4a6" stroke-opacity="0.5"/><path d="M-248.6 0A248.6 101.1 0 0 0 248.6 0" stroke="#d2c4a6" stroke-opacity="0.6"/><path d="M-249.1 0A249.1 101.3 0 0 0 249.1 0" stroke="#e0d4b9" stroke-opacity="0.6"/><path d="M-249.5 0A249.5 101.5 0 0 0 249.5 0" stroke="#d2c4a6" stroke-opacity="0.5"/><path d="M-250 0A250 101.7 0 0 0 250 0" stroke="#d9ccb0" stroke-opacity="0.5"/><path d="M-250.4 0A250.4 101.9 0 0 0 250.4 0" stroke="#d9ccb0" stroke-opacity="0.5"/><path d="M-250.9 0A250.9 102 0 0 0 250.9 0" stroke="#e0d4b9" stroke-opacity="0.4"/><path d="M-251.3 0A251.3 102.2 0 0 0 251.3 0" stroke="#d9ccb0" stroke-opacity="0.5"/><path d="M-251.8 0A251.8 102.4 0 0 0 251.8 0" stroke="#e0d4b9" stroke-opacity="0.6"/><path d="M-252.3 0A252.3 102.6 0 0 0 252.3 0" stroke="#e0d4b9" stroke-opacity="0.4"/><path d="M-252.7 0A252.7 102.8 0 0 0 252.7 0" stroke="#d9ccb0" stroke-opacity="0.6"/><path d="M-253.2 0A253.2 103 0 0 0 253.2 0" stroke="#e0d4b9" stroke-opacity="0.4"/><path d="M-253.6 0A253.6 103.2 0 0 0 253.6 0" stroke="#d9ccb0" stroke-opacity="0.6"/><path d="M-254.1 0A254.1 103.3 0 0 0 254.1 0" stroke="#d9ccb0" stroke-opacity="0.5"/><path d="M-254.5 0A254.5 103.5 0 0 0 254.5 0" stroke="#d9ccb0" stroke-opacity="0.6"/><path d="M-255 0A255 103.7 0 0 0 255 0" stroke="#d9ccb0" stroke-opacity="0.4"/><path d="M-255.5 0A255.5 103.9 0 0 0 255.5 0" stroke="#d9ccb0" stroke-opacity="0.4"/><path d="M-255.9 0A255.9 104.1 0 0 0 255.9 0" stroke="#e0d4b9" stroke-opacity="0.6"/><path d="M-256.4 0A256.4 104.3 0 0 0 256.4 0" stroke="#e0d4b9" stroke-opacity="0.6"/><path d="M-256.8 0A256.8 104.5 0 0 0 256.8 0" stroke="#e0d4b9" stroke-opacity="0.4"/><path d="M-257.3 0A257.3 104.7 0 0 0 257.3 0" stroke="#d9ccb0" stroke-opacity="0.4"/><path d="M-257.8 0A257.8 104.8 0 0 0 257.8 0" stroke="#e0d4b9" stroke-opacity="0.5"/><path d="M-258.2 0A258.2 105 0 0 0 258.2 0" stroke="#d2c4a6" stroke-opacity="0.4"/><path d="M-258.7 0A258.7 105.2 0 0 0 258.7 0" stroke="#d9ccb0" stroke-opacity="0.5"/><path d="M-259.1 0A259.1 105.4 0 0 0 259.1 0" stroke="#d9ccb0" stroke-opacity="0.5"/><path d="M-259.6 0A259.6 105.6 0 0 0 259.6 0" stroke="#e0d4b9" stroke-opacity="0.4"/><path d="M-260 0A260 105.8 0 0 0 260 0" stroke="#e0d4b9" stroke-opacity="0.4"/><path d="M-260.5 0A260.5 106 0 0 0 260.5 0" stroke="#d9ccb0" stroke-opacity="0.5"/><path d="M-261 0A261 106.1 0 0 0 261 0" stroke="#e0d4b9" stroke-opacity="0.4"/><path d="M-261.4 0A261.4 106.3 0 0 0 261.4 0" stroke="#e0d4b9" stroke-opacity="0.4"/><path d="M-261.9 0A261.9 106.5 0 0 0 261.9 0" stroke="#e0d4b9" stroke-opacity="0.5"/><path d="M-262.3 0A262.3 106.7 0 0 0 262.3 0" stroke="#d2c4a6" stroke-opacity="0.6"/><path d="M-262.8 0A262.8 106.9 0 0 0 262.8 0" stroke="#d9ccb0" stroke-opacity="0.4"/><path d="M-263.3 0A263.3 107.1 0 0 0 263.3 0" stroke="#d2c4a6" stroke-opacity="0.5"/><path d="M-263.7 0A263.7 107.3 0 0 0 263.7 0" stroke="#d9ccb0" stroke-opacity="0.5"/><path d="M-264.2 0A264.2 107.4 0 0 0 264.2 0" stroke="#d9ccb0" stroke-opacity="0.6"/><path d="M-264.6 0A264.6 107.6 0 0 0 264.6 0" stroke="#d2c4a6" stroke-opacity="0.4"/><path d="M-265.1 0A265.1 107.8 0 0 0 265.1 0" stroke="#d9ccb0" stroke-opacity="0.5"/><path d="M-265.5 0A265.5 108 0 0 0 265.5 0" stroke="#d2c4a6" stroke-opacity="0.5"/><path d="M-266.5 0A266.5 108.4 0 0 0 266.5 0" stroke="#d2c4a6" stroke-opacity="0.5"/><path d="M-266.9 0A266.9 108.6 0 0 0 266.9 0" stroke="#e0d4b9" stroke-opacity="0.5"/><path d="M-267.4 0A267.4 108.7 0 0 0 267.4 0" stroke="#d9ccb0" stroke-opacity="0.6"/><path d="M-267.8 0A267.8 108.9 0 0 0 267.8 0" stroke="#d2c4a6" stroke-opacity="0.5"/><path d="M-268.3 0A268.3 109.1 0 0 0 268.3 0" stroke="#d2c4a6" stroke-opacity="0.6"/><path d="M-268.7 0A268.7 109.3 0 0 0 268.7 0" stroke="#e0d4b9" stroke-opacity="0.5"/><path d="M-269.2 0A269.2 109.5 0 0 0 269.2 0" stroke="#d2c4a6" stroke-opacity="0.6"/><path d="M-269.7 0A269.7 109.7 0 0 0 269.7 0" stroke="#e0d4b9" stroke-opacity="0.5"/><path d="M-270.1 0A270.1 109.9 0 0 0 270.1 0" stroke="#e0d4b9" stroke-opacity="0.6"/><path d="M-270.6 0A270.6 110.1 0 0 0 270.6 0" stroke="#e0d4b9" stroke-opacity="0.5"/><path d="M-271 0A271 110.2 0 0 0 271 0" stroke="#d9ccb0" stroke-opacity="0.6"/><path d="M-271.5 0A271.5 110.4 0 0 0 271.5 0" stroke="#d2c4a6" stroke-opacity="0.5"/><path d="M-272 0A272 110.6 0 0 0 272 0" stroke="#d2c4a6" stroke-opacity="0.5"/><path d="M-278.8 0A278.8 113.4 0 0 0 278.8 0" stroke="#efe6d0" stroke-opacity="0.6"/><path d="M-279.3 0A279.3 113.6 0 0 0 279.3 0" stroke="#efe6d0" stroke-opacity="0.6"/></g></g><circle cx="555.1" cy="227.7" r="4.6" fill="url(#pti)"/><circle cx="555.1" cy="227.7" r="4.1" fill="#000" opacity=".45" transform="translate(1.6 1.4)"/><circle cx="41.2" cy="426.6" r="2.1" fill="#dcd8d0"/><circle cx="41.2" cy="426.6" r="1.9" fill="#000" opacity=".45" transform="translate(0.7 0.6)"/><circle cx="536.7" cy="291.2" r="1.8" fill="#d2cdc5"/><circle cx="536.7" cy="291.2" r="1.6" fill="#000" opacity=".45" transform="translate(0.6 0.5)"/><circle cx="53.9" cy="389.7" r="1.8" fill="#e2ded6"/><circle cx="53.9" cy="389.7" r="1.6" fill="#000" opacity=".45" transform="translate(0.6 0.5)"/><circle cx="514" cy="264.4" r="1.3" fill="#ffffff"/><circle cx="514" cy="264.4" r="1.2" fill="#000" opacity=".45" transform="translate(0.5 0.4)"/><filter id="pogr" x="0" y="0" width="100%" height="100%"><feTurbulence type="fractalNoise" baseFrequency=".85" numOctaves="2" stitchTiles="stitch"/><feColorMatrix type="saturate" values="0"/></filter><rect width="582" height="832" filter="url(#pogr)" opacity="0.1" style="mix-blend-mode: overlay"/></svg>